ISO-10303-21;
HEADER;
/* Generated by software containing ST-Developer
 * from STEP Tools, Inc. (www.steptools.com) 
 */
/* OPTION: strings as raw bytes, not using required /X/ escapes */

FILE_DESCRIPTION(
/* description */ ('Unknown'),
/* implementation_level */ '2;1');

FILE_NAME(
/* name */ 'SIT9120AI-2DF-25E125.000000',
/* time_stamp */ '2023-02-15T10:03:54+02:00',
/* author */ ('Unknown'),
/* organization */ ('Unknown'),
/* preprocessor_version */ 'ST-DEVELOPER v18.1',
/* originating_system */ 'Solid Edge',
/* authorisation */ 'Unknown');

FILE_SCHEMA (('AUTOMOTIVE_DESIGN {1 0 10303 214 3 1 1}'));
ENDSEC;

DATA;
#10=PROPERTY_DEFINITION_REPRESENTATION(#14,#12);
#11=PROPERTY_DEFINITION_REPRESENTATION(#15,#13);
#12=REPRESENTATION('',(#16),#1870);
#13=REPRESENTATION('',(#17),#1870);
#14=PROPERTY_DEFINITION('pmi validation property','',#1875);
#15=PROPERTY_DEFINITION('pmi validation property','',#1875);
#16=VALUE_REPRESENTATION_ITEM('number of annotations',COUNT_MEASURE(0.));
#17=VALUE_REPRESENTATION_ITEM('number of views',COUNT_MEASURE(0.));
#18=SHAPE_REPRESENTATION_RELATIONSHIP('','',#1274,#19);
#19=ADVANCED_BREP_SHAPE_REPRESENTATION('',(#1272),#1870);
#20=B_SPLINE_CURVE_WITH_KNOTS('',3,(#1657,#1658,#1659,#1660),
 .UNSPECIFIED.,.F.,.F.,(4,4),(0.,1.),.UNSPECIFIED.);
#21=PLANE('',#1279);
#22=PLANE('',#1283);
#23=PLANE('',#1284);
#24=PLANE('',#1285);
#25=PLANE('',#1289);
#26=PLANE('',#1290);
#27=PLANE('',#1294);
#28=PLANE('',#1295);
#29=PLANE('',#1296);
#30=PLANE('',#1297);
#31=PLANE('',#1299);
#32=PLANE('',#1303);
#33=PLANE('',#1304);
#34=PLANE('',#1305);
#35=PLANE('',#1309);
#36=PLANE('',#1313);
#37=PLANE('',#1317);
#38=PLANE('',#1318);
#39=PLANE('',#1319);
#40=PLANE('',#1320);
#41=PLANE('',#1321);
#42=PLANE('',#1322);
#43=PLANE('',#1323);
#44=PLANE('',#1324);
#45=PLANE('',#1325);
#46=PLANE('',#1326);
#47=PLANE('',#1332);
#48=PLANE('',#1335);
#49=PLANE('',#1336);
#50=PLANE('',#1337);
#51=PLANE('',#1340);
#52=PLANE('',#1343);
#53=PLANE('',#1346);
#54=PLANE('',#1347);
#55=PLANE('',#1348);
#56=PLANE('',#1349);
#57=PLANE('',#1350);
#58=LINE('',#1610,#157);
#59=LINE('',#1614,#158);
#60=LINE('',#1616,#159);
#61=LINE('',#1619,#160);
#62=LINE('',#1621,#161);
#63=LINE('',#1623,#162);
#64=LINE('',#1629,#163);
#65=LINE('',#1631,#164);
#66=LINE('',#1633,#165);
#67=LINE('',#1635,#166);
#68=LINE('',#1637,#167);
#69=LINE('',#1639,#168);
#70=LINE('',#1641,#169);
#71=LINE('',#1643,#170);
#72=LINE('',#1645,#171);
#73=LINE('',#1647,#172);
#74=LINE('',#1653,#173);
#75=LINE('',#1655,#174);
#76=LINE('',#1666,#175);
#77=LINE('',#1668,#176);
#78=LINE('',#1670,#177);
#79=LINE('',#1672,#178);
#80=LINE('',#1674,#179);
#81=LINE('',#1676,#180);
#82=LINE('',#1678,#181);
#83=LINE('',#1680,#182);
#84=LINE('',#1682,#183);
#85=LINE('',#1684,#184);
#86=LINE('',#1686,#185);
#87=LINE('',#1690,#186);
#88=LINE('',#1693,#187);
#89=LINE('',#1695,#188);
#90=LINE('',#1697,#189);
#91=LINE('',#1703,#190);
#92=LINE('',#1705,#191);
#93=LINE('',#1707,#192);
#94=LINE('',#1709,#193);
#95=LINE('',#1711,#194);
#96=LINE('',#1713,#195);
#97=LINE('',#1715,#196);
#98=LINE('',#1717,#197);
#99=LINE('',#1719,#198);
#100=LINE('',#1721,#199);
#101=LINE('',#1730,#200);
#102=LINE('',#1734,#201);
#103=LINE('',#1736,#202);
#104=LINE('',#1738,#203);
#105=LINE('',#1740,#204);
#106=LINE('',#1746,#205);
#107=LINE('',#1748,#206);
#108=LINE('',#1750,#207);
#109=LINE('',#1752,#208);
#110=LINE('',#1754,#209);
#111=LINE('',#1756,#210);
#112=LINE('',#1758,#211);
#113=LINE('',#1760,#212);
#114=LINE('',#1761,#213);
#115=LINE('',#1764,#214);
#116=LINE('',#1767,#215);
#117=LINE('',#1769,#216);
#118=LINE('',#1771,#217);
#119=LINE('',#1773,#218);
#120=LINE('',#1775,#219);
#121=LINE('',#1777,#220);
#122=LINE('',#1779,#221);
#123=LINE('',#1781,#222);
#124=LINE('',#1783,#223);
#125=LINE('',#1785,#224);
#126=LINE('',#1786,#225);
#127=LINE('',#1791,#226);
#128=LINE('',#1792,#227);
#129=LINE('',#1797,#228);
#130=LINE('',#1801,#229);
#131=LINE('',#1803,#230);
#132=LINE('',#1807,#231);
#133=LINE('',#1811,#232);
#134=LINE('',#1813,#233);
#135=LINE('',#1815,#234);
#136=LINE('',#1817,#235);
#137=LINE('',#1819,#236);
#138=LINE('',#1821,#237);
#139=LINE('',#1825,#238);
#140=LINE('',#1827,#239);
#141=LINE('',#1829,#240);
#142=LINE('',#1831,#241);
#143=LINE('',#1833,#242);
#144=LINE('',#1835,#243);
#145=LINE('',#1837,#244);
#146=LINE('',#1842,#245);
#147=LINE('',#1846,#246);
#148=LINE('',#1848,#247);
#149=LINE('',#1850,#248);
#150=LINE('',#1854,#249);
#151=LINE('',#1856,#250);
#152=LINE('',#1858,#251);
#153=LINE('',#1860,#252);
#154=LINE('',#1862,#253);
#155=LINE('',#1864,#254);
#156=LINE('',#1867,#255);
#157=VECTOR('',#1358,1000.);
#158=VECTOR('',#1361,1000.);
#159=VECTOR('',#1364,1000.);
#160=VECTOR('',#1365,1000.);
#161=VECTOR('',#1366,1000.);
#162=VECTOR('',#1367,1000.);
#163=VECTOR('',#1374,1000.);
#164=VECTOR('',#1377,1000.);
#165=VECTOR('',#1378,1000.);
#166=VECTOR('',#1379,1000.);
#167=VECTOR('',#1382,1000.);
#168=VECTOR('',#1383,1000.);
#169=VECTOR('',#1384,1000.);
#170=VECTOR('',#1387,1000.);
#171=VECTOR('',#1388,1000.);
#172=VECTOR('',#1389,1000.);
#173=VECTOR('',#1400,1000.);
#174=VECTOR('',#1401,1000.);
#175=VECTOR('',#1408,1000.);
#176=VECTOR('',#1411,1000.);
#177=VECTOR('',#1412,1000.);
#178=VECTOR('',#1413,1000.);
#179=VECTOR('',#1416,1000.);
#180=VECTOR('',#1417,1000.);
#181=VECTOR('',#1418,1000.);
#182=VECTOR('',#1421,1000.);
#183=VECTOR('',#1422,1000.);
#184=VECTOR('',#1423,1000.);
#185=VECTOR('',#1426,1000.);
#186=VECTOR('',#1431,1000.);
#187=VECTOR('',#1432,1000.);
#188=VECTOR('',#1433,1000.);
#189=VECTOR('',#1434,1000.);
#190=VECTOR('',#1441,1000.);
#191=VECTOR('',#1444,1000.);
#192=VECTOR('',#1445,1000.);
#193=VECTOR('',#1446,1000.);
#194=VECTOR('',#1449,1000.);
#195=VECTOR('',#1450,1000.);
#196=VECTOR('',#1451,1000.);
#197=VECTOR('',#1454,1000.);
#198=VECTOR('',#1455,1000.);
#199=VECTOR('',#1456,1000.);
#200=VECTOR('',#1469,1000.);
#201=VECTOR('',#1472,1000.);
#202=VECTOR('',#1475,1000.);
#203=VECTOR('',#1476,1000.);
#204=VECTOR('',#1477,1000.);
#205=VECTOR('',#1484,1000.);
#206=VECTOR('',#1487,1000.);
#207=VECTOR('',#1488,1000.);
#208=VECTOR('',#1489,1000.);
#209=VECTOR('',#1492,1000.);
#210=VECTOR('',#1493,1000.);
#211=VECTOR('',#1494,1000.);
#212=VECTOR('',#1497,1000.);
#213=VECTOR('',#1498,1000.);
#214=VECTOR('',#1503,1000.);
#215=VECTOR('',#1504,1000.);
#216=VECTOR('',#1505,1000.);
#217=VECTOR('',#1506,1000.);
#218=VECTOR('',#1509,1000.);
#219=VECTOR('',#1510,1000.);
#220=VECTOR('',#1511,1000.);
#221=VECTOR('',#1514,1000.);
#222=VECTOR('',#1515,1000.);
#223=VECTOR('',#1516,1000.);
#224=VECTOR('',#1519,1000.);
#225=VECTOR('',#1520,1000.);
#226=VECTOR('',#1527,1000.);
#227=VECTOR('',#1528,1000.);
#228=VECTOR('',#1531,1000.);
#229=VECTOR('',#1534,1000.);
#230=VECTOR('',#1535,1000.);
#231=VECTOR('',#1538,1000.);
#232=VECTOR('',#1541,1000.);
#233=VECTOR('',#1542,1000.);
#234=VECTOR('',#1543,1000.);
#235=VECTOR('',#1546,1000.);
#236=VECTOR('',#1547,1000.);
#237=VECTOR('',#1548,1000.);
#238=VECTOR('',#1553,1000.);
#239=VECTOR('',#1556,1000.);
#240=VECTOR('',#1557,1000.);
#241=VECTOR('',#1560,1000.);
#242=VECTOR('',#1561,1000.);
#243=VECTOR('',#1564,1000.);
#244=VECTOR('',#1565,1000.);
#245=VECTOR('',#1574,1000.);
#246=VECTOR('',#1577,1000.);
#247=VECTOR('',#1580,1000.);
#248=VECTOR('',#1581,1000.);
#249=VECTOR('',#1586,1000.);
#250=VECTOR('',#1589,1000.);
#251=VECTOR('',#1590,1000.);
#252=VECTOR('',#1593,1000.);
#253=VECTOR('',#1594,1000.);
#254=VECTOR('',#1597,1000.);
#255=VECTOR('',#1602,1000.);
#256=ORIENTED_EDGE('',*,*,#508,.F.);
#257=ORIENTED_EDGE('',*,*,#509,.F.);
#258=ORIENTED_EDGE('',*,*,#510,.T.);
#259=ORIENTED_EDGE('',*,*,#511,.T.);
#260=ORIENTED_EDGE('',*,*,#512,.F.);
#261=ORIENTED_EDGE('',*,*,#513,.F.);
#262=ORIENTED_EDGE('',*,*,#514,.T.);
#263=ORIENTED_EDGE('',*,*,#515,.T.);
#264=ORIENTED_EDGE('',*,*,#516,.F.);
#265=ORIENTED_EDGE('',*,*,#515,.F.);
#266=ORIENTED_EDGE('',*,*,#517,.T.);
#267=ORIENTED_EDGE('',*,*,#518,.T.);
#268=ORIENTED_EDGE('',*,*,#519,.F.);
#269=ORIENTED_EDGE('',*,*,#518,.F.);
#270=ORIENTED_EDGE('',*,*,#520,.T.);
#271=ORIENTED_EDGE('',*,*,#521,.T.);
#272=ORIENTED_EDGE('',*,*,#522,.F.);
#273=ORIENTED_EDGE('',*,*,#521,.F.);
#274=ORIENTED_EDGE('',*,*,#523,.T.);
#275=ORIENTED_EDGE('',*,*,#524,.T.);
#276=ORIENTED_EDGE('',*,*,#525,.F.);
#277=ORIENTED_EDGE('',*,*,#524,.F.);
#278=ORIENTED_EDGE('',*,*,#526,.T.);
#279=ORIENTED_EDGE('',*,*,#527,.T.);
#280=ORIENTED_EDGE('',*,*,#528,.F.);
#281=ORIENTED_EDGE('',*,*,#527,.F.);
#282=ORIENTED_EDGE('',*,*,#529,.T.);
#283=ORIENTED_EDGE('',*,*,#513,.T.);
#284=ORIENTED_EDGE('',*,*,#514,.F.);
#285=ORIENTED_EDGE('',*,*,#529,.F.);
#286=ORIENTED_EDGE('',*,*,#526,.F.);
#287=ORIENTED_EDGE('',*,*,#523,.F.);
#288=ORIENTED_EDGE('',*,*,#520,.F.);
#289=ORIENTED_EDGE('',*,*,#517,.F.);
#290=ORIENTED_EDGE('',*,*,#530,.F.);
#291=ORIENTED_EDGE('',*,*,#511,.F.);
#292=ORIENTED_EDGE('',*,*,#531,.T.);
#293=ORIENTED_EDGE('',*,*,#532,.T.);
#294=ORIENTED_EDGE('',*,*,#533,.F.);
#295=ORIENTED_EDGE('',*,*,#532,.F.);
#296=ORIENTED_EDGE('',*,*,#534,.T.);
#297=ORIENTED_EDGE('',*,*,#535,.T.);
#298=ORIENTED_EDGE('',*,*,#536,.F.);
#299=ORIENTED_EDGE('',*,*,#535,.F.);
#300=ORIENTED_EDGE('',*,*,#537,.T.);
#301=ORIENTED_EDGE('',*,*,#538,.T.);
#302=ORIENTED_EDGE('',*,*,#539,.F.);
#303=ORIENTED_EDGE('',*,*,#538,.F.);
#304=ORIENTED_EDGE('',*,*,#540,.T.);
#305=ORIENTED_EDGE('',*,*,#541,.T.);
#306=ORIENTED_EDGE('',*,*,#542,.F.);
#307=ORIENTED_EDGE('',*,*,#541,.F.);
#308=ORIENTED_EDGE('',*,*,#543,.T.);
#309=ORIENTED_EDGE('',*,*,#544,.T.);
#310=ORIENTED_EDGE('',*,*,#510,.F.);
#311=ORIENTED_EDGE('',*,*,#545,.F.);
#312=ORIENTED_EDGE('',*,*,#546,.F.);
#313=ORIENTED_EDGE('',*,*,#543,.F.);
#314=ORIENTED_EDGE('',*,*,#540,.F.);
#315=ORIENTED_EDGE('',*,*,#537,.F.);
#316=ORIENTED_EDGE('',*,*,#534,.F.);
#317=ORIENTED_EDGE('',*,*,#531,.F.);
#318=ORIENTED_EDGE('',*,*,#547,.F.);
#319=ORIENTED_EDGE('',*,*,#548,.F.);
#320=ORIENTED_EDGE('',*,*,#549,.T.);
#321=ORIENTED_EDGE('',*,*,#550,.T.);
#322=ORIENTED_EDGE('',*,*,#551,.F.);
#323=ORIENTED_EDGE('',*,*,#550,.F.);
#324=ORIENTED_EDGE('',*,*,#552,.T.);
#325=ORIENTED_EDGE('',*,*,#553,.T.);
#326=ORIENTED_EDGE('',*,*,#554,.F.);
#327=ORIENTED_EDGE('',*,*,#553,.F.);
#328=ORIENTED_EDGE('',*,*,#555,.T.);
#329=ORIENTED_EDGE('',*,*,#556,.T.);
#330=ORIENTED_EDGE('',*,*,#557,.F.);
#331=ORIENTED_EDGE('',*,*,#556,.F.);
#332=ORIENTED_EDGE('',*,*,#558,.T.);
#333=ORIENTED_EDGE('',*,*,#559,.T.);
#334=ORIENTED_EDGE('',*,*,#560,.F.);
#335=ORIENTED_EDGE('',*,*,#559,.F.);
#336=ORIENTED_EDGE('',*,*,#561,.T.);
#337=ORIENTED_EDGE('',*,*,#562,.T.);
#338=ORIENTED_EDGE('',*,*,#563,.F.);
#339=ORIENTED_EDGE('',*,*,#562,.F.);
#340=ORIENTED_EDGE('',*,*,#564,.T.);
#341=ORIENTED_EDGE('',*,*,#548,.T.);
#342=ORIENTED_EDGE('',*,*,#549,.F.);
#343=ORIENTED_EDGE('',*,*,#564,.F.);
#344=ORIENTED_EDGE('',*,*,#561,.F.);
#345=ORIENTED_EDGE('',*,*,#558,.F.);
#346=ORIENTED_EDGE('',*,*,#555,.F.);
#347=ORIENTED_EDGE('',*,*,#552,.F.);
#348=ORIENTED_EDGE('',*,*,#565,.F.);
#349=ORIENTED_EDGE('',*,*,#566,.F.);
#350=ORIENTED_EDGE('',*,*,#567,.T.);
#351=ORIENTED_EDGE('',*,*,#568,.T.);
#352=ORIENTED_EDGE('',*,*,#569,.F.);
#353=ORIENTED_EDGE('',*,*,#568,.F.);
#354=ORIENTED_EDGE('',*,*,#570,.T.);
#355=ORIENTED_EDGE('',*,*,#571,.T.);
#356=ORIENTED_EDGE('',*,*,#572,.F.);
#357=ORIENTED_EDGE('',*,*,#571,.F.);
#358=ORIENTED_EDGE('',*,*,#573,.T.);
#359=ORIENTED_EDGE('',*,*,#574,.T.);
#360=ORIENTED_EDGE('',*,*,#575,.F.);
#361=ORIENTED_EDGE('',*,*,#574,.F.);
#362=ORIENTED_EDGE('',*,*,#576,.T.);
#363=ORIENTED_EDGE('',*,*,#577,.T.);
#364=ORIENTED_EDGE('',*,*,#578,.F.);
#365=ORIENTED_EDGE('',*,*,#577,.F.);
#366=ORIENTED_EDGE('',*,*,#579,.T.);
#367=ORIENTED_EDGE('',*,*,#580,.T.);
#368=ORIENTED_EDGE('',*,*,#581,.F.);
#369=ORIENTED_EDGE('',*,*,#580,.F.);
#370=ORIENTED_EDGE('',*,*,#582,.T.);
#371=ORIENTED_EDGE('',*,*,#566,.T.);
#372=ORIENTED_EDGE('',*,*,#567,.F.);
#373=ORIENTED_EDGE('',*,*,#582,.F.);
#374=ORIENTED_EDGE('',*,*,#579,.F.);
#375=ORIENTED_EDGE('',*,*,#576,.F.);
#376=ORIENTED_EDGE('',*,*,#573,.F.);
#377=ORIENTED_EDGE('',*,*,#570,.F.);
#378=ORIENTED_EDGE('',*,*,#583,.T.);
#379=ORIENTED_EDGE('',*,*,#584,.F.);
#380=ORIENTED_EDGE('',*,*,#585,.F.);
#381=ORIENTED_EDGE('',*,*,#586,.T.);
#382=ORIENTED_EDGE('',*,*,#587,.T.);
#383=ORIENTED_EDGE('',*,*,#588,.F.);
#384=ORIENTED_EDGE('',*,*,#589,.F.);
#385=ORIENTED_EDGE('',*,*,#584,.T.);
#386=ORIENTED_EDGE('',*,*,#590,.T.);
#387=ORIENTED_EDGE('',*,*,#591,.F.);
#388=ORIENTED_EDGE('',*,*,#592,.F.);
#389=ORIENTED_EDGE('',*,*,#588,.T.);
#390=ORIENTED_EDGE('',*,*,#593,.T.);
#391=ORIENTED_EDGE('',*,*,#586,.F.);
#392=ORIENTED_EDGE('',*,*,#594,.F.);
#393=ORIENTED_EDGE('',*,*,#591,.T.);
#394=ORIENTED_EDGE('',*,*,#585,.T.);
#395=ORIENTED_EDGE('',*,*,#589,.T.);
#396=ORIENTED_EDGE('',*,*,#592,.T.);
#397=ORIENTED_EDGE('',*,*,#594,.T.);
#398=ORIENTED_EDGE('',*,*,#590,.F.);
#399=ORIENTED_EDGE('',*,*,#587,.F.);
#400=ORIENTED_EDGE('',*,*,#583,.F.);
#401=ORIENTED_EDGE('',*,*,#593,.F.);
#402=ORIENTED_EDGE('',*,*,#528,.T.);
#403=ORIENTED_EDGE('',*,*,#512,.T.);
#404=ORIENTED_EDGE('',*,*,#516,.T.);
#405=ORIENTED_EDGE('',*,*,#519,.T.);
#406=ORIENTED_EDGE('',*,*,#522,.T.);
#407=ORIENTED_EDGE('',*,*,#525,.T.);
#408=ORIENTED_EDGE('',*,*,#508,.T.);
#409=ORIENTED_EDGE('',*,*,#530,.T.);
#410=ORIENTED_EDGE('',*,*,#533,.T.);
#411=ORIENTED_EDGE('',*,*,#536,.T.);
#412=ORIENTED_EDGE('',*,*,#539,.T.);
#413=ORIENTED_EDGE('',*,*,#542,.T.);
#414=ORIENTED_EDGE('',*,*,#595,.T.);
#415=ORIENTED_EDGE('',*,*,#596,.T.);
#416=ORIENTED_EDGE('',*,*,#563,.T.);
#417=ORIENTED_EDGE('',*,*,#547,.T.);
#418=ORIENTED_EDGE('',*,*,#551,.T.);
#419=ORIENTED_EDGE('',*,*,#554,.T.);
#420=ORIENTED_EDGE('',*,*,#557,.T.);
#421=ORIENTED_EDGE('',*,*,#560,.T.);
#422=ORIENTED_EDGE('',*,*,#581,.T.);
#423=ORIENTED_EDGE('',*,*,#565,.T.);
#424=ORIENTED_EDGE('',*,*,#569,.T.);
#425=ORIENTED_EDGE('',*,*,#572,.T.);
#426=ORIENTED_EDGE('',*,*,#575,.T.);
#427=ORIENTED_EDGE('',*,*,#578,.T.);
#428=ORIENTED_EDGE('',*,*,#597,.T.);
#429=ORIENTED_EDGE('',*,*,#598,.T.);
#430=ORIENTED_EDGE('',*,*,#599,.T.);
#431=ORIENTED_EDGE('',*,*,#600,.T.);
#432=ORIENTED_EDGE('',*,*,#601,.T.);
#433=ORIENTED_EDGE('',*,*,#602,.T.);
#434=ORIENTED_EDGE('',*,*,#603,.T.);
#435=ORIENTED_EDGE('',*,*,#604,.T.);
#436=ORIENTED_EDGE('',*,*,#605,.T.);
#437=ORIENTED_EDGE('',*,*,#606,.T.);
#438=ORIENTED_EDGE('',*,*,#607,.T.);
#439=ORIENTED_EDGE('',*,*,#608,.T.);
#440=ORIENTED_EDGE('',*,*,#604,.F.);
#441=ORIENTED_EDGE('',*,*,#609,.F.);
#442=ORIENTED_EDGE('',*,*,#610,.T.);
#443=ORIENTED_EDGE('',*,*,#611,.T.);
#444=ORIENTED_EDGE('',*,*,#605,.F.);
#445=ORIENTED_EDGE('',*,*,#611,.F.);
#446=ORIENTED_EDGE('',*,*,#612,.T.);
#447=ORIENTED_EDGE('',*,*,#613,.T.);
#448=ORIENTED_EDGE('',*,*,#606,.F.);
#449=ORIENTED_EDGE('',*,*,#613,.F.);
#450=ORIENTED_EDGE('',*,*,#614,.T.);
#451=ORIENTED_EDGE('',*,*,#615,.T.);
#452=ORIENTED_EDGE('',*,*,#607,.F.);
#453=ORIENTED_EDGE('',*,*,#615,.F.);
#454=ORIENTED_EDGE('',*,*,#616,.T.);
#455=ORIENTED_EDGE('',*,*,#617,.T.);
#456=ORIENTED_EDGE('',*,*,#608,.F.);
#457=ORIENTED_EDGE('',*,*,#617,.F.);
#458=ORIENTED_EDGE('',*,*,#618,.T.);
#459=ORIENTED_EDGE('',*,*,#619,.T.);
#460=ORIENTED_EDGE('',*,*,#603,.F.);
#461=ORIENTED_EDGE('',*,*,#619,.F.);
#462=ORIENTED_EDGE('',*,*,#620,.T.);
#463=ORIENTED_EDGE('',*,*,#609,.T.);
#464=ORIENTED_EDGE('',*,*,#610,.F.);
#465=ORIENTED_EDGE('',*,*,#620,.F.);
#466=ORIENTED_EDGE('',*,*,#618,.F.);
#467=ORIENTED_EDGE('',*,*,#616,.F.);
#468=ORIENTED_EDGE('',*,*,#614,.F.);
#469=ORIENTED_EDGE('',*,*,#612,.F.);
#470=ORIENTED_EDGE('',*,*,#598,.F.);
#471=ORIENTED_EDGE('',*,*,#621,.F.);
#472=ORIENTED_EDGE('',*,*,#622,.T.);
#473=ORIENTED_EDGE('',*,*,#623,.T.);
#474=ORIENTED_EDGE('',*,*,#599,.F.);
#475=ORIENTED_EDGE('',*,*,#623,.F.);
#476=ORIENTED_EDGE('',*,*,#624,.T.);
#477=ORIENTED_EDGE('',*,*,#625,.T.);
#478=ORIENTED_EDGE('',*,*,#600,.F.);
#479=ORIENTED_EDGE('',*,*,#625,.F.);
#480=ORIENTED_EDGE('',*,*,#626,.T.);
#481=ORIENTED_EDGE('',*,*,#627,.T.);
#482=ORIENTED_EDGE('',*,*,#601,.F.);
#483=ORIENTED_EDGE('',*,*,#627,.F.);
#484=ORIENTED_EDGE('',*,*,#628,.T.);
#485=ORIENTED_EDGE('',*,*,#629,.T.);
#486=ORIENTED_EDGE('',*,*,#602,.F.);
#487=ORIENTED_EDGE('',*,*,#629,.F.);
#488=ORIENTED_EDGE('',*,*,#630,.T.);
#489=ORIENTED_EDGE('',*,*,#631,.T.);
#490=ORIENTED_EDGE('',*,*,#597,.F.);
#491=ORIENTED_EDGE('',*,*,#631,.F.);
#492=ORIENTED_EDGE('',*,*,#632,.T.);
#493=ORIENTED_EDGE('',*,*,#621,.T.);
#494=ORIENTED_EDGE('',*,*,#622,.F.);
#495=ORIENTED_EDGE('',*,*,#632,.F.);
#496=ORIENTED_EDGE('',*,*,#630,.F.);
#497=ORIENTED_EDGE('',*,*,#628,.F.);
#498=ORIENTED_EDGE('',*,*,#626,.F.);
#499=ORIENTED_EDGE('',*,*,#624,.F.);
#500=ORIENTED_EDGE('',*,*,#596,.F.);
#501=ORIENTED_EDGE('',*,*,#633,.F.);
#502=ORIENTED_EDGE('',*,*,#545,.T.);
#503=ORIENTED_EDGE('',*,*,#509,.T.);
#504=ORIENTED_EDGE('',*,*,#595,.F.);
#505=ORIENTED_EDGE('',*,*,#544,.F.);
#506=ORIENTED_EDGE('',*,*,#546,.T.);
#507=ORIENTED_EDGE('',*,*,#633,.T.);
#508=EDGE_CURVE('',#634,#635,#718,.T.);
#509=EDGE_CURVE('',#636,#634,#58,.T.);
#510=EDGE_CURVE('',#636,#637,#719,.T.);
#511=EDGE_CURVE('',#637,#635,#59,.T.);
#512=EDGE_CURVE('',#638,#639,#60,.T.);
#513=EDGE_CURVE('',#640,#638,#61,.T.);
#514=EDGE_CURVE('',#640,#641,#62,.T.);
#515=EDGE_CURVE('',#641,#639,#63,.T.);
#516=EDGE_CURVE('',#639,#642,#720,.T.);
#517=EDGE_CURVE('',#641,#643,#721,.T.);
#518=EDGE_CURVE('',#643,#642,#64,.T.);
#519=EDGE_CURVE('',#642,#644,#65,.T.);
#520=EDGE_CURVE('',#643,#645,#66,.T.);
#521=EDGE_CURVE('',#645,#644,#67,.T.);
#522=EDGE_CURVE('',#644,#646,#68,.T.);
#523=EDGE_CURVE('',#645,#647,#69,.T.);
#524=EDGE_CURVE('',#647,#646,#70,.T.);
#525=EDGE_CURVE('',#646,#648,#71,.T.);
#526=EDGE_CURVE('',#647,#649,#72,.T.);
#527=EDGE_CURVE('',#649,#648,#73,.T.);
#528=EDGE_CURVE('',#648,#638,#722,.T.);
#529=EDGE_CURVE('',#649,#640,#723,.T.);
#530=EDGE_CURVE('',#635,#650,#74,.T.);
#531=EDGE_CURVE('',#637,#651,#75,.T.);
#532=EDGE_CURVE('',#651,#650,#20,.T.);
#533=EDGE_CURVE('',#650,#652,#724,.T.);
#534=EDGE_CURVE('',#651,#653,#725,.T.);
#535=EDGE_CURVE('',#653,#652,#76,.T.);
#536=EDGE_CURVE('',#652,#654,#77,.T.);
#537=EDGE_CURVE('',#653,#655,#78,.T.);
#538=EDGE_CURVE('',#655,#654,#79,.T.);
#539=EDGE_CURVE('',#654,#656,#80,.T.);
#540=EDGE_CURVE('',#655,#657,#81,.T.);
#541=EDGE_CURVE('',#657,#656,#82,.T.);
#542=EDGE_CURVE('',#656,#658,#83,.T.);
#543=EDGE_CURVE('',#657,#659,#84,.T.);
#544=EDGE_CURVE('',#659,#658,#85,.T.);
#545=EDGE_CURVE('',#660,#636,#86,.T.);
#546=EDGE_CURVE('',#659,#660,#726,.T.);
#547=EDGE_CURVE('',#661,#662,#87,.T.);
#548=EDGE_CURVE('',#663,#661,#88,.T.);
#549=EDGE_CURVE('',#663,#664,#89,.T.);
#550=EDGE_CURVE('',#664,#662,#90,.T.);
#551=EDGE_CURVE('',#662,#665,#727,.T.);
#552=EDGE_CURVE('',#664,#666,#728,.T.);
#553=EDGE_CURVE('',#666,#665,#91,.T.);
#554=EDGE_CURVE('',#665,#667,#92,.T.);
#555=EDGE_CURVE('',#666,#668,#93,.T.);
#556=EDGE_CURVE('',#668,#667,#94,.T.);
#557=EDGE_CURVE('',#667,#669,#95,.T.);
#558=EDGE_CURVE('',#668,#670,#96,.T.);
#559=EDGE_CURVE('',#670,#669,#97,.T.);
#560=EDGE_CURVE('',#669,#671,#98,.T.);
#561=EDGE_CURVE('',#670,#672,#99,.T.);
#562=EDGE_CURVE('',#672,#671,#100,.T.);
#563=EDGE_CURVE('',#671,#661,#729,.T.);
#564=EDGE_CURVE('',#672,#663,#730,.T.);
#565=EDGE_CURVE('',#673,#674,#731,.T.);
#566=EDGE_CURVE('',#675,#673,#101,.T.);
#567=EDGE_CURVE('',#675,#676,#732,.T.);
#568=EDGE_CURVE('',#676,#674,#102,.T.);
#569=EDGE_CURVE('',#674,#677,#103,.T.);
#570=EDGE_CURVE('',#676,#678,#104,.T.);
#571=EDGE_CURVE('',#678,#677,#105,.T.);
#572=EDGE_CURVE('',#677,#679,#733,.T.);
#573=EDGE_CURVE('',#678,#680,#734,.T.);
#574=EDGE_CURVE('',#680,#679,#106,.T.);
#575=EDGE_CURVE('',#679,#681,#107,.T.);
#576=EDGE_CURVE('',#680,#682,#108,.T.);
#577=EDGE_CURVE('',#682,#681,#109,.T.);
#578=EDGE_CURVE('',#681,#683,#110,.T.);
#579=EDGE_CURVE('',#682,#684,#111,.T.);
#580=EDGE_CURVE('',#684,#683,#112,.T.);
#581=EDGE_CURVE('',#683,#673,#113,.T.);
#582=EDGE_CURVE('',#684,#675,#114,.T.);
#583=EDGE_CURVE('',#685,#686,#115,.T.);
#584=EDGE_CURVE('',#687,#686,#116,.T.);
#585=EDGE_CURVE('',#688,#687,#117,.T.);
#586=EDGE_CURVE('',#688,#685,#118,.T.);
#587=EDGE_CURVE('',#686,#689,#119,.T.);
#588=EDGE_CURVE('',#690,#689,#120,.T.);
#589=EDGE_CURVE('',#687,#690,#121,.T.);
#590=EDGE_CURVE('',#689,#691,#122,.T.);
#591=EDGE_CURVE('',#692,#691,#123,.T.);
#592=EDGE_CURVE('',#690,#692,#124,.T.);
#593=EDGE_CURVE('',#691,#685,#125,.T.);
#594=EDGE_CURVE('',#692,#688,#126,.T.);
#595=EDGE_CURVE('',#658,#693,#735,.T.);
#596=EDGE_CURVE('',#693,#634,#127,.T.);
#597=EDGE_CURVE('',#694,#695,#128,.T.);
#598=EDGE_CURVE('',#695,#696,#736,.T.);
#599=EDGE_CURVE('',#696,#697,#129,.T.);
#600=EDGE_CURVE('',#697,#698,#737,.T.);
#601=EDGE_CURVE('',#698,#699,#130,.T.);
#602=EDGE_CURVE('',#699,#694,#131,.T.);
#603=EDGE_CURVE('',#700,#701,#738,.T.);
#604=EDGE_CURVE('',#701,#702,#132,.T.);
#605=EDGE_CURVE('',#702,#703,#739,.T.);
#606=EDGE_CURVE('',#703,#704,#133,.T.);
#607=EDGE_CURVE('',#704,#705,#134,.T.);
#608=EDGE_CURVE('',#705,#700,#135,.T.);
#609=EDGE_CURVE('',#706,#701,#136,.T.);
#610=EDGE_CURVE('',#706,#707,#137,.T.);
#611=EDGE_CURVE('',#707,#702,#138,.T.);
#612=EDGE_CURVE('',#707,#708,#740,.T.);
#613=EDGE_CURVE('',#708,#703,#139,.T.);
#614=EDGE_CURVE('',#708,#709,#140,.T.);
#615=EDGE_CURVE('',#709,#704,#141,.T.);
#616=EDGE_CURVE('',#709,#710,#142,.T.);
#617=EDGE_CURVE('',#710,#705,#143,.T.);
#618=EDGE_CURVE('',#710,#711,#144,.T.);
#619=EDGE_CURVE('',#711,#700,#145,.T.);
#620=EDGE_CURVE('',#711,#706,#741,.T.);
#621=EDGE_CURVE('',#712,#695,#146,.T.);
#622=EDGE_CURVE('',#712,#713,#742,.T.);
#623=EDGE_CURVE('',#713,#696,#147,.T.);
#624=EDGE_CURVE('',#713,#714,#148,.T.);
#625=EDGE_CURVE('',#714,#697,#149,.T.);
#626=EDGE_CURVE('',#714,#715,#743,.T.);
#627=EDGE_CURVE('',#715,#698,#150,.T.);
#628=EDGE_CURVE('',#715,#716,#151,.T.);
#629=EDGE_CURVE('',#716,#699,#152,.T.);
#630=EDGE_CURVE('',#716,#717,#153,.T.);
#631=EDGE_CURVE('',#717,#694,#154,.T.);
#632=EDGE_CURVE('',#717,#712,#155,.T.);
#633=EDGE_CURVE('',#660,#693,#156,.T.);
#634=VERTEX_POINT('',#1608);
#635=VERTEX_POINT('',#1609);
#636=VERTEX_POINT('',#1611);
#637=VERTEX_POINT('',#1613);
#638=VERTEX_POINT('',#1617);
#639=VERTEX_POINT('',#1618);
#640=VERTEX_POINT('',#1620);
#641=VERTEX_POINT('',#1622);
#642=VERTEX_POINT('',#1626);
#643=VERTEX_POINT('',#1628);
#644=VERTEX_POINT('',#1632);
#645=VERTEX_POINT('',#1634);
#646=VERTEX_POINT('',#1638);
#647=VERTEX_POINT('',#1640);
#648=VERTEX_POINT('',#1644);
#649=VERTEX_POINT('',#1646);
#650=VERTEX_POINT('',#1654);
#651=VERTEX_POINT('',#1656);
#652=VERTEX_POINT('',#1663);
#653=VERTEX_POINT('',#1665);
#654=VERTEX_POINT('',#1669);
#655=VERTEX_POINT('',#1671);
#656=VERTEX_POINT('',#1675);
#657=VERTEX_POINT('',#1677);
#658=VERTEX_POINT('',#1681);
#659=VERTEX_POINT('',#1683);
#660=VERTEX_POINT('',#1687);
#661=VERTEX_POINT('',#1691);
#662=VERTEX_POINT('',#1692);
#663=VERTEX_POINT('',#1694);
#664=VERTEX_POINT('',#1696);
#665=VERTEX_POINT('',#1700);
#666=VERTEX_POINT('',#1702);
#667=VERTEX_POINT('',#1706);
#668=VERTEX_POINT('',#1708);
#669=VERTEX_POINT('',#1712);
#670=VERTEX_POINT('',#1714);
#671=VERTEX_POINT('',#1718);
#672=VERTEX_POINT('',#1720);
#673=VERTEX_POINT('',#1728);
#674=VERTEX_POINT('',#1729);
#675=VERTEX_POINT('',#1731);
#676=VERTEX_POINT('',#1733);
#677=VERTEX_POINT('',#1737);
#678=VERTEX_POINT('',#1739);
#679=VERTEX_POINT('',#1743);
#680=VERTEX_POINT('',#1745);
#681=VERTEX_POINT('',#1749);
#682=VERTEX_POINT('',#1751);
#683=VERTEX_POINT('',#1755);
#684=VERTEX_POINT('',#1757);
#685=VERTEX_POINT('',#1765);
#686=VERTEX_POINT('',#1766);
#687=VERTEX_POINT('',#1768);
#688=VERTEX_POINT('',#1770);
#689=VERTEX_POINT('',#1774);
#690=VERTEX_POINT('',#1776);
#691=VERTEX_POINT('',#1780);
#692=VERTEX_POINT('',#1782);
#693=VERTEX_POINT('',#1790);
#694=VERTEX_POINT('',#1793);
#695=VERTEX_POINT('',#1794);
#696=VERTEX_POINT('',#1796);
#697=VERTEX_POINT('',#1798);
#698=VERTEX_POINT('',#1800);
#699=VERTEX_POINT('',#1802);
#700=VERTEX_POINT('',#1805);
#701=VERTEX_POINT('',#1806);
#702=VERTEX_POINT('',#1808);
#703=VERTEX_POINT('',#1810);
#704=VERTEX_POINT('',#1812);
#705=VERTEX_POINT('',#1814);
#706=VERTEX_POINT('',#1818);
#707=VERTEX_POINT('',#1820);
#708=VERTEX_POINT('',#1824);
#709=VERTEX_POINT('',#1828);
#710=VERTEX_POINT('',#1832);
#711=VERTEX_POINT('',#1836);
#712=VERTEX_POINT('',#1843);
#713=VERTEX_POINT('',#1845);
#714=VERTEX_POINT('',#1849);
#715=VERTEX_POINT('',#1853);
#716=VERTEX_POINT('',#1857);
#717=VERTEX_POINT('',#1861);
#718=CIRCLE('',#1277,0.69);
#719=CIRCLE('',#1278,0.69);
#720=CIRCLE('',#1281,0.69);
#721=CIRCLE('',#1282,0.69);
#722=CIRCLE('',#1287,0.69);
#723=CIRCLE('',#1288,0.69);
#724=CIRCLE('',#1292,0.69);
#725=CIRCLE('',#1293,0.69);
#726=CIRCLE('',#1298,0.092041254683678);
#727=CIRCLE('',#1301,0.69);
#728=CIRCLE('',#1302,0.69);
#729=CIRCLE('',#1307,0.69);
#730=CIRCLE('',#1308,0.69);
#731=CIRCLE('',#1311,0.69);
#732=CIRCLE('',#1312,0.69);
#733=CIRCLE('',#1315,0.69);
#734=CIRCLE('',#1316,0.69);
#735=CIRCLE('',#1327,0.092041254683678);
#736=CIRCLE('',#1328,0.69);
#737=CIRCLE('',#1329,0.69);
#738=CIRCLE('',#1330,0.69);
#739=CIRCLE('',#1331,0.69);
#740=CIRCLE('',#1334,0.69);
#741=CIRCLE('',#1339,0.69);
#742=CIRCLE('',#1342,0.69);
#743=CIRCLE('',#1345,0.69);
#744=EDGE_LOOP('',(#256,#257,#258,#259));
#745=EDGE_LOOP('',(#260,#261,#262,#263));
#746=EDGE_LOOP('',(#264,#265,#266,#267));
#747=EDGE_LOOP('',(#268,#269,#270,#271));
#748=EDGE_LOOP('',(#272,#273,#274,#275));
#749=EDGE_LOOP('',(#276,#277,#278,#279));
#750=EDGE_LOOP('',(#280,#281,#282,#283));
#751=EDGE_LOOP('',(#284,#285,#286,#287,#288,#289));
#752=EDGE_LOOP('',(#290,#291,#292,#293));
#753=EDGE_LOOP('',(#294,#295,#296,#297));
#754=EDGE_LOOP('',(#298,#299,#300,#301));
#755=EDGE_LOOP('',(#302,#303,#304,#305));
#756=EDGE_LOOP('',(#306,#307,#308,#309));
#757=EDGE_LOOP('',(#310,#311,#312,#313,#314,#315,#316,#317));
#758=EDGE_LOOP('',(#318,#319,#320,#321));
#759=EDGE_LOOP('',(#322,#323,#324,#325));
#760=EDGE_LOOP('',(#326,#327,#328,#329));
#761=EDGE_LOOP('',(#330,#331,#332,#333));
#762=EDGE_LOOP('',(#334,#335,#336,#337));
#763=EDGE_LOOP('',(#338,#339,#340,#341));
#764=EDGE_LOOP('',(#342,#343,#344,#345,#346,#347));
#765=EDGE_LOOP('',(#348,#349,#350,#351));
#766=EDGE_LOOP('',(#352,#353,#354,#355));
#767=EDGE_LOOP('',(#356,#357,#358,#359));
#768=EDGE_LOOP('',(#360,#361,#362,#363));
#769=EDGE_LOOP('',(#364,#365,#366,#367));
#770=EDGE_LOOP('',(#368,#369,#370,#371));
#771=EDGE_LOOP('',(#372,#373,#374,#375,#376,#377));
#772=EDGE_LOOP('',(#378,#379,#380,#381));
#773=EDGE_LOOP('',(#382,#383,#384,#385));
#774=EDGE_LOOP('',(#386,#387,#388,#389));
#775=EDGE_LOOP('',(#390,#391,#392,#393));
#776=EDGE_LOOP('',(#394,#395,#396,#397));
#777=EDGE_LOOP('',(#398,#399,#400,#401));
#778=EDGE_LOOP('',(#402,#403,#404,#405,#406,#407));
#779=EDGE_LOOP('',(#408,#409,#410,#411,#412,#413,#414,#415));
#780=EDGE_LOOP('',(#416,#417,#418,#419,#420,#421));
#781=EDGE_LOOP('',(#422,#423,#424,#425,#426,#427));
#782=EDGE_LOOP('',(#428,#429,#430,#431,#432,#433));
#783=EDGE_LOOP('',(#434,#435,#436,#437,#438,#439));
#784=EDGE_LOOP('',(#440,#441,#442,#443));
#785=EDGE_LOOP('',(#444,#445,#446,#447));
#786=EDGE_LOOP('',(#448,#449,#450,#451));
#787=EDGE_LOOP('',(#452,#453,#454,#455));
#788=EDGE_LOOP('',(#456,#457,#458,#459));
#789=EDGE_LOOP('',(#460,#461,#462,#463));
#790=EDGE_LOOP('',(#464,#465,#466,#467,#468,#469));
#791=EDGE_LOOP('',(#470,#471,#472,#473));
#792=EDGE_LOOP('',(#474,#475,#476,#477));
#793=EDGE_LOOP('',(#478,#479,#480,#481));
#794=EDGE_LOOP('',(#482,#483,#484,#485));
#795=EDGE_LOOP('',(#486,#487,#488,#489));
#796=EDGE_LOOP('',(#490,#491,#492,#493));
#797=EDGE_LOOP('',(#494,#495,#496,#497,#498,#499));
#798=EDGE_LOOP('',(#500,#501,#502,#503));
#799=EDGE_LOOP('',(#504,#505,#506,#507));
#800=FACE_BOUND('',#744,.T.);
#801=FACE_BOUND('',#745,.T.);
#802=FACE_BOUND('',#746,.T.);
#803=FACE_BOUND('',#747,.T.);
#804=FACE_BOUND('',#748,.T.);
#805=FACE_BOUND('',#749,.T.);
#806=FACE_BOUND('',#750,.T.);
#807=FACE_BOUND('',#751,.T.);
#808=FACE_BOUND('',#752,.T.);
#809=FACE_BOUND('',#753,.T.);
#810=FACE_BOUND('',#754,.T.);
#811=FACE_BOUND('',#755,.T.);
#812=FACE_BOUND('',#756,.T.);
#813=FACE_BOUND('',#757,.T.);
#814=FACE_BOUND('',#758,.T.);
#815=FACE_BOUND('',#759,.T.);
#816=FACE_BOUND('',#760,.T.);
#817=FACE_BOUND('',#761,.T.);
#818=FACE_BOUND('',#762,.T.);
#819=FACE_BOUND('',#763,.T.);
#820=FACE_BOUND('',#764,.T.);
#821=FACE_BOUND('',#765,.T.);
#822=FACE_BOUND('',#766,.T.);
#823=FACE_BOUND('',#767,.T.);
#824=FACE_BOUND('',#768,.T.);
#825=FACE_BOUND('',#769,.T.);
#826=FACE_BOUND('',#770,.T.);
#827=FACE_BOUND('',#771,.T.);
#828=FACE_BOUND('',#772,.T.);
#829=FACE_BOUND('',#773,.T.);
#830=FACE_BOUND('',#774,.T.);
#831=FACE_BOUND('',#775,.T.);
#832=FACE_BOUND('',#776,.T.);
#833=FACE_BOUND('',#777,.T.);
#834=FACE_BOUND('',#778,.T.);
#835=FACE_BOUND('',#779,.T.);
#836=FACE_BOUND('',#780,.T.);
#837=FACE_BOUND('',#781,.T.);
#838=FACE_BOUND('',#782,.T.);
#839=FACE_BOUND('',#783,.T.);
#840=FACE_BOUND('',#784,.T.);
#841=FACE_BOUND('',#785,.T.);
#842=FACE_BOUND('',#786,.T.);
#843=FACE_BOUND('',#787,.T.);
#844=FACE_BOUND('',#788,.T.);
#845=FACE_BOUND('',#789,.T.);
#846=FACE_BOUND('',#790,.T.);
#847=FACE_BOUND('',#791,.T.);
#848=FACE_BOUND('',#792,.T.);
#849=FACE_BOUND('',#793,.T.);
#850=FACE_BOUND('',#794,.T.);
#851=FACE_BOUND('',#795,.T.);
#852=FACE_BOUND('',#796,.T.);
#853=FACE_BOUND('',#797,.T.);
#854=FACE_BOUND('',#798,.T.);
#855=FACE_BOUND('',#799,.T.);
#856=CYLINDRICAL_SURFACE('',#1276,0.69);
#857=CYLINDRICAL_SURFACE('',#1280,0.69);
#858=CYLINDRICAL_SURFACE('',#1286,0.69);
#859=CYLINDRICAL_SURFACE('',#1291,0.69);
#860=CYLINDRICAL_SURFACE('',#1300,0.69);
#861=CYLINDRICAL_SURFACE('',#1306,0.69);
#862=CYLINDRICAL_SURFACE('',#1310,0.69);
#863=CYLINDRICAL_SURFACE('',#1314,0.69);
#864=CYLINDRICAL_SURFACE('',#1333,0.69);
#865=CYLINDRICAL_SURFACE('',#1338,0.69);
#866=CYLINDRICAL_SURFACE('',#1341,0.69);
#867=CYLINDRICAL_SURFACE('',#1344,0.69);
#868=CYLINDRICAL_SURFACE('',#1351,0.092041254683678);
#869=STYLED_ITEM('',(#919),#1221);
#870=STYLED_ITEM('',(#920),#1222);
#871=STYLED_ITEM('',(#921),#1223);
#872=STYLED_ITEM('',(#922),#1224);
#873=STYLED_ITEM('',(#923),#1225);
#874=STYLED_ITEM('',(#924),#1226);
#875=STYLED_ITEM('',(#925),#1227);
#876=STYLED_ITEM('',(#926),#1228);
#877=STYLED_ITEM('',(#927),#1229);
#878=STYLED_ITEM('',(#928),#1230);
#879=STYLED_ITEM('',(#929),#1231);
#880=STYLED_ITEM('',(#930),#1232);
#881=STYLED_ITEM('',(#931),#1233);
#882=STYLED_ITEM('',(#932),#1234);
#883=STYLED_ITEM('',(#933),#1235);
#884=STYLED_ITEM('',(#934),#1236);
#885=STYLED_ITEM('',(#935),#1237);
#886=STYLED_ITEM('',(#936),#1238);
#887=STYLED_ITEM('',(#937),#1239);
#888=STYLED_ITEM('',(#938),#1240);
#889=STYLED_ITEM('',(#939),#1241);
#890=STYLED_ITEM('',(#940),#1242);
#891=STYLED_ITEM('',(#941),#1243);
#892=STYLED_ITEM('',(#942),#1244);
#893=STYLED_ITEM('',(#943),#1245);
#894=STYLED_ITEM('',(#944),#1246);
#895=STYLED_ITEM('',(#945),#1247);
#896=STYLED_ITEM('',(#946),#1248);
#897=STYLED_ITEM('',(#947),#1249);
#898=STYLED_ITEM('',(#948),#1250);
#899=STYLED_ITEM('',(#949),#1251);
#900=STYLED_ITEM('',(#950),#1252);
#901=STYLED_ITEM('',(#951),#1253);
#902=STYLED_ITEM('',(#952),#1254);
#903=STYLED_ITEM('',(#953),#1255);
#904=STYLED_ITEM('',(#954),#1256);
#905=STYLED_ITEM('',(#955),#1257);
#906=STYLED_ITEM('',(#956),#1258);
#907=STYLED_ITEM('',(#957),#1259);
#908=STYLED_ITEM('',(#958),#1260);
#909=STYLED_ITEM('',(#959),#1261);
#910=STYLED_ITEM('',(#960),#1262);
#911=STYLED_ITEM('',(#961),#1263);
#912=STYLED_ITEM('',(#962),#1264);
#913=STYLED_ITEM('',(#963),#1265);
#914=STYLED_ITEM('',(#964),#1266);
#915=STYLED_ITEM('',(#965),#1267);
#916=STYLED_ITEM('',(#966),#1268);
#917=STYLED_ITEM('',(#967),#1269);
#918=STYLED_ITEM('',(#968),#1270);
#919=PRESENTATION_STYLE_ASSIGNMENT((#969));
#920=PRESENTATION_STYLE_ASSIGNMENT((#970));
#921=PRESENTATION_STYLE_ASSIGNMENT((#971));
#922=PRESENTATION_STYLE_ASSIGNMENT((#972));
#923=PRESENTATION_STYLE_ASSIGNMENT((#973));
#924=PRESENTATION_STYLE_ASSIGNMENT((#974));
#925=PRESENTATION_STYLE_ASSIGNMENT((#975));
#926=PRESENTATION_STYLE_ASSIGNMENT((#976));
#927=PRESENTATION_STYLE_ASSIGNMENT((#977));
#928=PRESENTATION_STYLE_ASSIGNMENT((#978));
#929=PRESENTATION_STYLE_ASSIGNMENT((#979));
#930=PRESENTATION_STYLE_ASSIGNMENT((#980));
#931=PRESENTATION_STYLE_ASSIGNMENT((#981));
#932=PRESENTATION_STYLE_ASSIGNMENT((#982));
#933=PRESENTATION_STYLE_ASSIGNMENT((#983));
#934=PRESENTATION_STYLE_ASSIGNMENT((#984));
#935=PRESENTATION_STYLE_ASSIGNMENT((#985));
#936=PRESENTATION_STYLE_ASSIGNMENT((#986));
#937=PRESENTATION_STYLE_ASSIGNMENT((#987));
#938=PRESENTATION_STYLE_ASSIGNMENT((#988));
#939=PRESENTATION_STYLE_ASSIGNMENT((#989));
#940=PRESENTATION_STYLE_ASSIGNMENT((#990));
#941=PRESENTATION_STYLE_ASSIGNMENT((#991));
#942=PRESENTATION_STYLE_ASSIGNMENT((#992));
#943=PRESENTATION_STYLE_ASSIGNMENT((#993));
#944=PRESENTATION_STYLE_ASSIGNMENT((#994));
#945=PRESENTATION_STYLE_ASSIGNMENT((#995));
#946=PRESENTATION_STYLE_ASSIGNMENT((#996));
#947=PRESENTATION_STYLE_ASSIGNMENT((#997));
#948=PRESENTATION_STYLE_ASSIGNMENT((#998));
#949=PRESENTATION_STYLE_ASSIGNMENT((#999));
#950=PRESENTATION_STYLE_ASSIGNMENT((#1000));
#951=PRESENTATION_STYLE_ASSIGNMENT((#1001));
#952=PRESENTATION_STYLE_ASSIGNMENT((#1002));
#953=PRESENTATION_STYLE_ASSIGNMENT((#1003));
#954=PRESENTATION_STYLE_ASSIGNMENT((#1004));
#955=PRESENTATION_STYLE_ASSIGNMENT((#1005));
#956=PRESENTATION_STYLE_ASSIGNMENT((#1006));
#957=PRESENTATION_STYLE_ASSIGNMENT((#1007));
#958=PRESENTATION_STYLE_ASSIGNMENT((#1008));
#959=PRESENTATION_STYLE_ASSIGNMENT((#1009));
#960=PRESENTATION_STYLE_ASSIGNMENT((#1010));
#961=PRESENTATION_STYLE_ASSIGNMENT((#1011));
#962=PRESENTATION_STYLE_ASSIGNMENT((#1012));
#963=PRESENTATION_STYLE_ASSIGNMENT((#1013));
#964=PRESENTATION_STYLE_ASSIGNMENT((#1014));
#965=PRESENTATION_STYLE_ASSIGNMENT((#1015));
#966=PRESENTATION_STYLE_ASSIGNMENT((#1016));
#967=PRESENTATION_STYLE_ASSIGNMENT((#1017));
#968=PRESENTATION_STYLE_ASSIGNMENT((#1018));
#969=SURFACE_STYLE_USAGE(.BOTH.,#1019);
#970=SURFACE_STYLE_USAGE(.BOTH.,#1020);
#971=SURFACE_STYLE_USAGE(.BOTH.,#1021);
#972=SURFACE_STYLE_USAGE(.BOTH.,#1022);
#973=SURFACE_STYLE_USAGE(.BOTH.,#1023);
#974=SURFACE_STYLE_USAGE(.BOTH.,#1024);
#975=SURFACE_STYLE_USAGE(.BOTH.,#1025);
#976=SURFACE_STYLE_USAGE(.BOTH.,#1026);
#977=SURFACE_STYLE_USAGE(.BOTH.,#1027);
#978=SURFACE_STYLE_USAGE(.BOTH.,#1028);
#979=SURFACE_STYLE_USAGE(.BOTH.,#1029);
#980=SURFACE_STYLE_USAGE(.BOTH.,#1030);
#981=SURFACE_STYLE_USAGE(.BOTH.,#1031);
#982=SURFACE_STYLE_USAGE(.BOTH.,#1032);
#983=SURFACE_STYLE_USAGE(.BOTH.,#1033);
#984=SURFACE_STYLE_USAGE(.BOTH.,#1034);
#985=SURFACE_STYLE_USAGE(.BOTH.,#1035);
#986=SURFACE_STYLE_USAGE(.BOTH.,#1036);
#987=SURFACE_STYLE_USAGE(.BOTH.,#1037);
#988=SURFACE_STYLE_USAGE(.BOTH.,#1038);
#989=SURFACE_STYLE_USAGE(.BOTH.,#1039);
#990=SURFACE_STYLE_USAGE(.BOTH.,#1040);
#991=SURFACE_STYLE_USAGE(.BOTH.,#1041);
#992=SURFACE_STYLE_USAGE(.BOTH.,#1042);
#993=SURFACE_STYLE_USAGE(.BOTH.,#1043);
#994=SURFACE_STYLE_USAGE(.BOTH.,#1044);
#995=SURFACE_STYLE_USAGE(.BOTH.,#1045);
#996=SURFACE_STYLE_USAGE(.BOTH.,#1046);
#997=SURFACE_STYLE_USAGE(.BOTH.,#1047);
#998=SURFACE_STYLE_USAGE(.BOTH.,#1048);
#999=SURFACE_STYLE_USAGE(.BOTH.,#1049);
#1000=SURFACE_STYLE_USAGE(.BOTH.,#1050);
#1001=SURFACE_STYLE_USAGE(.BOTH.,#1051);
#1002=SURFACE_STYLE_USAGE(.BOTH.,#1052);
#1003=SURFACE_STYLE_USAGE(.BOTH.,#1053);
#1004=SURFACE_STYLE_USAGE(.BOTH.,#1054);
#1005=SURFACE_STYLE_USAGE(.BOTH.,#1055);
#1006=SURFACE_STYLE_USAGE(.BOTH.,#1056);
#1007=SURFACE_STYLE_USAGE(.BOTH.,#1057);
#1008=SURFACE_STYLE_USAGE(.BOTH.,#1058);
#1009=SURFACE_STYLE_USAGE(.BOTH.,#1059);
#1010=SURFACE_STYLE_USAGE(.BOTH.,#1060);
#1011=SURFACE_STYLE_USAGE(.BOTH.,#1061);
#1012=SURFACE_STYLE_USAGE(.BOTH.,#1062);
#1013=SURFACE_STYLE_USAGE(.BOTH.,#1063);
#1014=SURFACE_STYLE_USAGE(.BOTH.,#1064);
#1015=SURFACE_STYLE_USAGE(.BOTH.,#1065);
#1016=SURFACE_STYLE_USAGE(.BOTH.,#1066);
#1017=SURFACE_STYLE_USAGE(.BOTH.,#1067);
#1018=SURFACE_STYLE_USAGE(.BOTH.,#1068);
#1019=SURFACE_SIDE_STYLE('',(#1069));
#1020=SURFACE_SIDE_STYLE('',(#1070));
#1021=SURFACE_SIDE_STYLE('',(#1071));
#1022=SURFACE_SIDE_STYLE('',(#1072));
#1023=SURFACE_SIDE_STYLE('',(#1073));
#1024=SURFACE_SIDE_STYLE('',(#1074));
#1025=SURFACE_SIDE_STYLE('',(#1075));
#1026=SURFACE_SIDE_STYLE('',(#1076));
#1027=SURFACE_SIDE_STYLE('',(#1077));
#1028=SURFACE_SIDE_STYLE('',(#1078));
#1029=SURFACE_SIDE_STYLE('',(#1079));
#1030=SURFACE_SIDE_STYLE('',(#1080));
#1031=SURFACE_SIDE_STYLE('',(#1081));
#1032=SURFACE_SIDE_STYLE('',(#1082));
#1033=SURFACE_SIDE_STYLE('',(#1083));
#1034=SURFACE_SIDE_STYLE('',(#1084));
#1035=SURFACE_SIDE_STYLE('',(#1085));
#1036=SURFACE_SIDE_STYLE('',(#1086));
#1037=SURFACE_SIDE_STYLE('',(#1087));
#1038=SURFACE_SIDE_STYLE('',(#1088));
#1039=SURFACE_SIDE_STYLE('',(#1089));
#1040=SURFACE_SIDE_STYLE('',(#1090));
#1041=SURFACE_SIDE_STYLE('',(#1091));
#1042=SURFACE_SIDE_STYLE('',(#1092));
#1043=SURFACE_SIDE_STYLE('',(#1093));
#1044=SURFACE_SIDE_STYLE('',(#1094));
#1045=SURFACE_SIDE_STYLE('',(#1095));
#1046=SURFACE_SIDE_STYLE('',(#1096));
#1047=SURFACE_SIDE_STYLE('',(#1097));
#1048=SURFACE_SIDE_STYLE('',(#1098));
#1049=SURFACE_SIDE_STYLE('',(#1099));
#1050=SURFACE_SIDE_STYLE('',(#1100));
#1051=SURFACE_SIDE_STYLE('',(#1101));
#1052=SURFACE_SIDE_STYLE('',(#1102));
#1053=SURFACE_SIDE_STYLE('',(#1103));
#1054=SURFACE_SIDE_STYLE('',(#1104));
#1055=SURFACE_SIDE_STYLE('',(#1105));
#1056=SURFACE_SIDE_STYLE('',(#1106));
#1057=SURFACE_SIDE_STYLE('',(#1107));
#1058=SURFACE_SIDE_STYLE('',(#1108));
#1059=SURFACE_SIDE_STYLE('',(#1109));
#1060=SURFACE_SIDE_STYLE('',(#1110));
#1061=SURFACE_SIDE_STYLE('',(#1111));
#1062=SURFACE_SIDE_STYLE('',(#1112));
#1063=SURFACE_SIDE_STYLE('',(#1113));
#1064=SURFACE_SIDE_STYLE('',(#1114));
#1065=SURFACE_SIDE_STYLE('',(#1115));
#1066=SURFACE_SIDE_STYLE('',(#1116));
#1067=SURFACE_SIDE_STYLE('',(#1117));
#1068=SURFACE_SIDE_STYLE('',(#1118));
#1069=SURFACE_STYLE_FILL_AREA(#1119);
#1070=SURFACE_STYLE_FILL_AREA(#1120);
#1071=SURFACE_STYLE_FILL_AREA(#1121);
#1072=SURFACE_STYLE_FILL_AREA(#1122);
#1073=SURFACE_STYLE_FILL_AREA(#1123);
#1074=SURFACE_STYLE_FILL_AREA(#1124);
#1075=SURFACE_STYLE_FILL_AREA(#1125);
#1076=SURFACE_STYLE_FILL_AREA(#1126);
#1077=SURFACE_STYLE_FILL_AREA(#1127);
#1078=SURFACE_STYLE_FILL_AREA(#1128);
#1079=SURFACE_STYLE_FILL_AREA(#1129);
#1080=SURFACE_STYLE_FILL_AREA(#1130);
#1081=SURFACE_STYLE_FILL_AREA(#1131);
#1082=SURFACE_STYLE_FILL_AREA(#1132);
#1083=SURFACE_STYLE_FILL_AREA(#1133);
#1084=SURFACE_STYLE_FILL_AREA(#1134);
#1085=SURFACE_STYLE_FILL_AREA(#1135);
#1086=SURFACE_STYLE_FILL_AREA(#1136);
#1087=SURFACE_STYLE_FILL_AREA(#1137);
#1088=SURFACE_STYLE_FILL_AREA(#1138);
#1089=SURFACE_STYLE_FILL_AREA(#1139);
#1090=SURFACE_STYLE_FILL_AREA(#1140);
#1091=SURFACE_STYLE_FILL_AREA(#1141);
#1092=SURFACE_STYLE_FILL_AREA(#1142);
#1093=SURFACE_STYLE_FILL_AREA(#1143);
#1094=SURFACE_STYLE_FILL_AREA(#1144);
#1095=SURFACE_STYLE_FILL_AREA(#1145);
#1096=SURFACE_STYLE_FILL_AREA(#1146);
#1097=SURFACE_STYLE_FILL_AREA(#1147);
#1098=SURFACE_STYLE_FILL_AREA(#1148);
#1099=SURFACE_STYLE_FILL_AREA(#1149);
#1100=SURFACE_STYLE_FILL_AREA(#1150);
#1101=SURFACE_STYLE_FILL_AREA(#1151);
#1102=SURFACE_STYLE_FILL_AREA(#1152);
#1103=SURFACE_STYLE_FILL_AREA(#1153);
#1104=SURFACE_STYLE_FILL_AREA(#1154);
#1105=SURFACE_STYLE_FILL_AREA(#1155);
#1106=SURFACE_STYLE_FILL_AREA(#1156);
#1107=SURFACE_STYLE_FILL_AREA(#1157);
#1108=SURFACE_STYLE_FILL_AREA(#1158);
#1109=SURFACE_STYLE_FILL_AREA(#1159);
#1110=SURFACE_STYLE_FILL_AREA(#1160);
#1111=SURFACE_STYLE_FILL_AREA(#1161);
#1112=SURFACE_STYLE_FILL_AREA(#1162);
#1113=SURFACE_STYLE_FILL_AREA(#1163);
#1114=SURFACE_STYLE_FILL_AREA(#1164);
#1115=SURFACE_STYLE_FILL_AREA(#1165);
#1116=SURFACE_STYLE_FILL_AREA(#1166);
#1117=SURFACE_STYLE_FILL_AREA(#1167);
#1118=SURFACE_STYLE_FILL_AREA(#1168);
#1119=FILL_AREA_STYLE('',(#1169));
#1120=FILL_AREA_STYLE('',(#1170));
#1121=FILL_AREA_STYLE('',(#1171));
#1122=FILL_AREA_STYLE('',(#1172));
#1123=FILL_AREA_STYLE('',(#1173));
#1124=FILL_AREA_STYLE('',(#1174));
#1125=FILL_AREA_STYLE('',(#1175));
#1126=FILL_AREA_STYLE('',(#1176));
#1127=FILL_AREA_STYLE('',(#1177));
#1128=FILL_AREA_STYLE('',(#1178));
#1129=FILL_AREA_STYLE('',(#1179));
#1130=FILL_AREA_STYLE('',(#1180));
#1131=FILL_AREA_STYLE('',(#1181));
#1132=FILL_AREA_STYLE('',(#1182));
#1133=FILL_AREA_STYLE('',(#1183));
#1134=FILL_AREA_STYLE('',(#1184));
#1135=FILL_AREA_STYLE('',(#1185));
#1136=FILL_AREA_STYLE('',(#1186));
#1137=FILL_AREA_STYLE('',(#1187));
#1138=FILL_AREA_STYLE('',(#1188));
#1139=FILL_AREA_STYLE('',(#1189));
#1140=FILL_AREA_STYLE('',(#1190));
#1141=FILL_AREA_STYLE('',(#1191));
#1142=FILL_AREA_STYLE('',(#1192));
#1143=FILL_AREA_STYLE('',(#1193));
#1144=FILL_AREA_STYLE('',(#1194));
#1145=FILL_AREA_STYLE('',(#1195));
#1146=FILL_AREA_STYLE('',(#1196));
#1147=FILL_AREA_STYLE('',(#1197));
#1148=FILL_AREA_STYLE('',(#1198));
#1149=FILL_AREA_STYLE('',(#1199));
#1150=FILL_AREA_STYLE('',(#1200));
#1151=FILL_AREA_STYLE('',(#1201));
#1152=FILL_AREA_STYLE('',(#1202));
#1153=FILL_AREA_STYLE('',(#1203));
#1154=FILL_AREA_STYLE('',(#1204));
#1155=FILL_AREA_STYLE('',(#1205));
#1156=FILL_AREA_STYLE('',(#1206));
#1157=FILL_AREA_STYLE('',(#1207));
#1158=FILL_AREA_STYLE('',(#1208));
#1159=FILL_AREA_STYLE('',(#1209));
#1160=FILL_AREA_STYLE('',(#1210));
#1161=FILL_AREA_STYLE('',(#1211));
#1162=FILL_AREA_STYLE('',(#1212));
#1163=FILL_AREA_STYLE('',(#1213));
#1164=FILL_AREA_STYLE('',(#1214));
#1165=FILL_AREA_STYLE('',(#1215));
#1166=FILL_AREA_STYLE('',(#1216));
#1167=FILL_AREA_STYLE('',(#1217));
#1168=FILL_AREA_STYLE('',(#1218));
#1169=FILL_AREA_STYLE_COLOUR('',#1219);
#1170=FILL_AREA_STYLE_COLOUR('',#1219);
#1171=FILL_AREA_STYLE_COLOUR('',#1219);
#1172=FILL_AREA_STYLE_COLOUR('',#1219);
#1173=FILL_AREA_STYLE_COLOUR('',#1219);
#1174=FILL_AREA_STYLE_COLOUR('',#1219);
#1175=FILL_AREA_STYLE_COLOUR('',#1219);
#1176=FILL_AREA_STYLE_COLOUR('',#1219);
#1177=FILL_AREA_STYLE_COLOUR('',#1219);
#1178=FILL_AREA_STYLE_COLOUR('',#1219);
#1179=FILL_AREA_STYLE_COLOUR('',#1219);
#1180=FILL_AREA_STYLE_COLOUR('',#1219);
#1181=FILL_AREA_STYLE_COLOUR('',#1219);
#1182=FILL_AREA_STYLE_COLOUR('',#1219);
#1183=FILL_AREA_STYLE_COLOUR('',#1219);
#1184=FILL_AREA_STYLE_COLOUR('',#1219);
#1185=FILL_AREA_STYLE_COLOUR('',#1219);
#1186=FILL_AREA_STYLE_COLOUR('',#1219);
#1187=FILL_AREA_STYLE_COLOUR('',#1219);
#1188=FILL_AREA_STYLE_COLOUR('',#1219);
#1189=FILL_AREA_STYLE_COLOUR('',#1219);
#1190=FILL_AREA_STYLE_COLOUR('',#1219);
#1191=FILL_AREA_STYLE_COLOUR('',#1219);
#1192=FILL_AREA_STYLE_COLOUR('',#1219);
#1193=FILL_AREA_STYLE_COLOUR('',#1219);
#1194=FILL_AREA_STYLE_COLOUR('',#1219);
#1195=FILL_AREA_STYLE_COLOUR('',#1219);
#1196=FILL_AREA_STYLE_COLOUR('',#1219);
#1197=FILL_AREA_STYLE_COLOUR('',#1220);
#1198=FILL_AREA_STYLE_COLOUR('',#1220);
#1199=FILL_AREA_STYLE_COLOUR('',#1220);
#1200=FILL_AREA_STYLE_COLOUR('',#1220);
#1201=FILL_AREA_STYLE_COLOUR('',#1220);
#1202=FILL_AREA_STYLE_COLOUR('',#1220);
#1203=FILL_AREA_STYLE_COLOUR('',#1219);
#1204=FILL_AREA_STYLE_COLOUR('',#1219);
#1205=FILL_AREA_STYLE_COLOUR('',#1219);
#1206=FILL_AREA_STYLE_COLOUR('',#1219);
#1207=FILL_AREA_STYLE_COLOUR('',#1219);
#1208=FILL_AREA_STYLE_COLOUR('',#1219);
#1209=FILL_AREA_STYLE_COLOUR('',#1219);
#1210=FILL_AREA_STYLE_COLOUR('',#1219);
#1211=FILL_AREA_STYLE_COLOUR('',#1219);
#1212=FILL_AREA_STYLE_COLOUR('',#1219);
#1213=FILL_AREA_STYLE_COLOUR('',#1219);
#1214=FILL_AREA_STYLE_COLOUR('',#1219);
#1215=FILL_AREA_STYLE_COLOUR('',#1219);
#1216=FILL_AREA_STYLE_COLOUR('',#1219);
#1217=FILL_AREA_STYLE_COLOUR('',#1219);
#1218=FILL_AREA_STYLE_COLOUR('',#1219);
#1219=COLOUR_RGB('',0.699999988079071,0.699999988079071,0.699999988079071);
#1220=COLOUR_RGB('',0.200000002980232,0.200000002980232,0.200000002980232);
#1221=ADVANCED_FACE('',(#800),#856,.T.);
#1222=ADVANCED_FACE('',(#801),#21,.T.);
#1223=ADVANCED_FACE('',(#802),#857,.T.);
#1224=ADVANCED_FACE('',(#803),#22,.T.);
#1225=ADVANCED_FACE('',(#804),#23,.T.);
#1226=ADVANCED_FACE('',(#805),#24,.T.);
#1227=ADVANCED_FACE('',(#806),#858,.T.);
#1228=ADVANCED_FACE('',(#807),#25,.F.);
#1229=ADVANCED_FACE('',(#808),#26,.T.);
#1230=ADVANCED_FACE('',(#809),#859,.T.);
#1231=ADVANCED_FACE('',(#810),#27,.T.);
#1232=ADVANCED_FACE('',(#811),#28,.T.);
#1233=ADVANCED_FACE('',(#812),#29,.T.);
#1234=ADVANCED_FACE('',(#813),#30,.F.);
#1235=ADVANCED_FACE('',(#814),#31,.T.);
#1236=ADVANCED_FACE('',(#815),#860,.T.);
#1237=ADVANCED_FACE('',(#816),#32,.T.);
#1238=ADVANCED_FACE('',(#817),#33,.T.);
#1239=ADVANCED_FACE('',(#818),#34,.T.);
#1240=ADVANCED_FACE('',(#819),#861,.T.);
#1241=ADVANCED_FACE('',(#820),#35,.F.);
#1242=ADVANCED_FACE('',(#821),#862,.T.);
#1243=ADVANCED_FACE('',(#822),#36,.T.);
#1244=ADVANCED_FACE('',(#823),#863,.T.);
#1245=ADVANCED_FACE('',(#824),#37,.T.);
#1246=ADVANCED_FACE('',(#825),#38,.T.);
#1247=ADVANCED_FACE('',(#826),#39,.T.);
#1248=ADVANCED_FACE('',(#827),#40,.F.);
#1249=ADVANCED_FACE('',(#828),#41,.F.);
#1250=ADVANCED_FACE('',(#829),#42,.F.);
#1251=ADVANCED_FACE('',(#830),#43,.F.);
#1252=ADVANCED_FACE('',(#831),#44,.F.);
#1253=ADVANCED_FACE('',(#832),#45,.T.);
#1254=ADVANCED_FACE('',(#833,#834,#835,#836,#837,#838,#839),#46,.F.);
#1255=ADVANCED_FACE('',(#840),#47,.T.);
#1256=ADVANCED_FACE('',(#841),#864,.T.);
#1257=ADVANCED_FACE('',(#842),#48,.T.);
#1258=ADVANCED_FACE('',(#843),#49,.T.);
#1259=ADVANCED_FACE('',(#844),#50,.T.);
#1260=ADVANCED_FACE('',(#845),#865,.T.);
#1261=ADVANCED_FACE('',(#846),#51,.F.);
#1262=ADVANCED_FACE('',(#847),#866,.T.);
#1263=ADVANCED_FACE('',(#848),#52,.T.);
#1264=ADVANCED_FACE('',(#849),#867,.T.);
#1265=ADVANCED_FACE('',(#850),#53,.T.);
#1266=ADVANCED_FACE('',(#851),#54,.T.);
#1267=ADVANCED_FACE('',(#852),#55,.T.);
#1268=ADVANCED_FACE('',(#853),#56,.F.);
#1269=ADVANCED_FACE('',(#854),#57,.T.);
#1270=ADVANCED_FACE('',(#855),#868,.T.);
#1271=CLOSED_SHELL('',(#1221,#1222,#1223,#1224,#1225,#1226,#1227,#1228,
#1229,#1230,#1231,#1232,#1233,#1234,#1235,#1236,#1237,#1238,#1239,#1240,
#1241,#1242,#1243,#1244,#1245,#1246,#1247,#1248,#1249,#1250,#1251,#1252,
#1253,#1254,#1255,#1256,#1257,#1258,#1259,#1260,#1261,#1262,#1263,#1264,
#1265,#1266,#1267,#1268,#1269,#1270));
#1272=MANIFOLD_SOLID_BREP('',#1271);
#1273=SHAPE_DEFINITION_REPRESENTATION(#1875,#1274);
#1274=SHAPE_REPRESENTATION('SIT9120AI-2DF-25E125.000000',(#1275),#1870);
#1275=AXIS2_PLACEMENT_3D('',#1605,#1352,#1353);
#1276=AXIS2_PLACEMENT_3D('',#1606,#1354,#1355);
#1277=AXIS2_PLACEMENT_3D('',#1607,#1356,#1357);
#1278=AXIS2_PLACEMENT_3D('',#1612,#1359,#1360);
#1279=AXIS2_PLACEMENT_3D('',#1615,#1362,#1363);
#1280=AXIS2_PLACEMENT_3D('',#1624,#1368,#1369);
#1281=AXIS2_PLACEMENT_3D('',#1625,#1370,#1371);
#1282=AXIS2_PLACEMENT_3D('',#1627,#1372,#1373);
#1283=AXIS2_PLACEMENT_3D('',#1630,#1375,#1376);
#1284=AXIS2_PLACEMENT_3D('',#1636,#1380,#1381);
#1285=AXIS2_PLACEMENT_3D('',#1642,#1385,#1386);
#1286=AXIS2_PLACEMENT_3D('',#1648,#1390,#1391);
#1287=AXIS2_PLACEMENT_3D('',#1649,#1392,#1393);
#1288=AXIS2_PLACEMENT_3D('',#1650,#1394,#1395);
#1289=AXIS2_PLACEMENT_3D('',#1651,#1396,#1397);
#1290=AXIS2_PLACEMENT_3D('',#1652,#1398,#1399);
#1291=AXIS2_PLACEMENT_3D('',#1661,#1402,#1403);
#1292=AXIS2_PLACEMENT_3D('',#1662,#1404,#1405);
#1293=AXIS2_PLACEMENT_3D('',#1664,#1406,#1407);
#1294=AXIS2_PLACEMENT_3D('',#1667,#1409,#1410);
#1295=AXIS2_PLACEMENT_3D('',#1673,#1414,#1415);
#1296=AXIS2_PLACEMENT_3D('',#1679,#1419,#1420);
#1297=AXIS2_PLACEMENT_3D('',#1685,#1424,#1425);
#1298=AXIS2_PLACEMENT_3D('',#1688,#1427,#1428);
#1299=AXIS2_PLACEMENT_3D('',#1689,#1429,#1430);
#1300=AXIS2_PLACEMENT_3D('',#1698,#1435,#1436);
#1301=AXIS2_PLACEMENT_3D('',#1699,#1437,#1438);
#1302=AXIS2_PLACEMENT_3D('',#1701,#1439,#1440);
#1303=AXIS2_PLACEMENT_3D('',#1704,#1442,#1443);
#1304=AXIS2_PLACEMENT_3D('',#1710,#1447,#1448);
#1305=AXIS2_PLACEMENT_3D('',#1716,#1452,#1453);
#1306=AXIS2_PLACEMENT_3D('',#1722,#1457,#1458);
#1307=AXIS2_PLACEMENT_3D('',#1723,#1459,#1460);
#1308=AXIS2_PLACEMENT_3D('',#1724,#1461,#1462);
#1309=AXIS2_PLACEMENT_3D('',#1725,#1463,#1464);
#1310=AXIS2_PLACEMENT_3D('',#1726,#1465,#1466);
#1311=AXIS2_PLACEMENT_3D('',#1727,#1467,#1468);
#1312=AXIS2_PLACEMENT_3D('',#1732,#1470,#1471);
#1313=AXIS2_PLACEMENT_3D('',#1735,#1473,#1474);
#1314=AXIS2_PLACEMENT_3D('',#1741,#1478,#1479);
#1315=AXIS2_PLACEMENT_3D('',#1742,#1480,#1481);
#1316=AXIS2_PLACEMENT_3D('',#1744,#1482,#1483);
#1317=AXIS2_PLACEMENT_3D('',#1747,#1485,#1486);
#1318=AXIS2_PLACEMENT_3D('',#1753,#1490,#1491);
#1319=AXIS2_PLACEMENT_3D('',#1759,#1495,#1496);
#1320=AXIS2_PLACEMENT_3D('',#1762,#1499,#1500);
#1321=AXIS2_PLACEMENT_3D('',#1763,#1501,#1502);
#1322=AXIS2_PLACEMENT_3D('',#1772,#1507,#1508);
#1323=AXIS2_PLACEMENT_3D('',#1778,#1512,#1513);
#1324=AXIS2_PLACEMENT_3D('',#1784,#1517,#1518);
#1325=AXIS2_PLACEMENT_3D('',#1787,#1521,#1522);
#1326=AXIS2_PLACEMENT_3D('',#1788,#1523,#1524);
#1327=AXIS2_PLACEMENT_3D('',#1789,#1525,#1526);
#1328=AXIS2_PLACEMENT_3D('',#1795,#1529,#1530);
#1329=AXIS2_PLACEMENT_3D('',#1799,#1532,#1533);
#1330=AXIS2_PLACEMENT_3D('',#1804,#1536,#1537);
#1331=AXIS2_PLACEMENT_3D('',#1809,#1539,#1540);
#1332=AXIS2_PLACEMENT_3D('',#1816,#1544,#1545);
#1333=AXIS2_PLACEMENT_3D('',#1822,#1549,#1550);
#1334=AXIS2_PLACEMENT_3D('',#1823,#1551,#1552);
#1335=AXIS2_PLACEMENT_3D('',#1826,#1554,#1555);
#1336=AXIS2_PLACEMENT_3D('',#1830,#1558,#1559);
#1337=AXIS2_PLACEMENT_3D('',#1834,#1562,#1563);
#1338=AXIS2_PLACEMENT_3D('',#1838,#1566,#1567);
#1339=AXIS2_PLACEMENT_3D('',#1839,#1568,#1569);
#1340=AXIS2_PLACEMENT_3D('',#1840,#1570,#1571);
#1341=AXIS2_PLACEMENT_3D('',#1841,#1572,#1573);
#1342=AXIS2_PLACEMENT_3D('',#1844,#1575,#1576);
#1343=AXIS2_PLACEMENT_3D('',#1847,#1578,#1579);
#1344=AXIS2_PLACEMENT_3D('',#1851,#1582,#1583);
#1345=AXIS2_PLACEMENT_3D('',#1852,#1584,#1585);
#1346=AXIS2_PLACEMENT_3D('',#1855,#1587,#1588);
#1347=AXIS2_PLACEMENT_3D('',#1859,#1591,#1592);
#1348=AXIS2_PLACEMENT_3D('',#1863,#1595,#1596);
#1349=AXIS2_PLACEMENT_3D('',#1865,#1598,#1599);
#1350=AXIS2_PLACEMENT_3D('',#1866,#1600,#1601);
#1351=AXIS2_PLACEMENT_3D('',#1868,#1603,#1604);
#1352=DIRECTION('',(0.,0.,1.));
#1353=DIRECTION('',(1.,0.,0.));
#1354=DIRECTION('',(0.,0.,1.));
#1355=DIRECTION('',(1.,0.,0.));
#1356=DIRECTION('',(0.,0.,1.));
#1357=DIRECTION('',(1.,0.,0.));
#1358=DIRECTION('',(0.,0.,1.));
#1359=DIRECTION('',(0.,0.,1.));
#1360=DIRECTION('',(1.,0.,0.));
#1361=DIRECTION('',(0.,0.,1.));
#1362=DIRECTION('',(0.,1.,0.));
#1363=DIRECTION('',(0.,0.,1.));
#1364=DIRECTION('',(-1.,0.,0.));
#1365=DIRECTION('',(0.,0.,1.));
#1366=DIRECTION('',(-1.,0.,0.));
#1367=DIRECTION('',(0.,0.,1.));
#1368=DIRECTION('',(0.,0.,1.));
#1369=DIRECTION('',(1.,0.,0.));
#1370=DIRECTION('',(0.,0.,1.));
#1371=DIRECTION('',(1.,0.,0.));
#1372=DIRECTION('',(0.,0.,1.));
#1373=DIRECTION('',(1.,0.,0.));
#1374=DIRECTION('',(0.,0.,1.));
#1375=DIRECTION('',(-1.,0.,0.));
#1376=DIRECTION('',(0.,0.,1.));
#1377=DIRECTION('',(0.,-1.,0.));
#1378=DIRECTION('',(0.,-1.,0.));
#1379=DIRECTION('',(0.,0.,1.));
#1380=DIRECTION('',(0.,-1.,0.));
#1381=DIRECTION('',(0.,0.,-1.));
#1382=DIRECTION('',(1.,0.,0.));
#1383=DIRECTION('',(1.,0.,0.));
#1384=DIRECTION('',(0.,0.,1.));
#1385=DIRECTION('',(1.,0.,0.));
#1386=DIRECTION('',(0.,0.,-1.));
#1387=DIRECTION('',(0.,1.,0.));
#1388=DIRECTION('',(0.,1.,0.));
#1389=DIRECTION('',(0.,0.,1.));
#1390=DIRECTION('',(0.,0.,1.));
#1391=DIRECTION('',(1.,0.,0.));
#1392=DIRECTION('',(0.,0.,1.));
#1393=DIRECTION('',(-1.,0.,0.));
#1394=DIRECTION('',(0.,0.,1.));
#1395=DIRECTION('',(-1.,0.,0.));
#1396=DIRECTION('',(0.,0.,1.));
#1397=DIRECTION('',(1.,0.,0.));
#1398=DIRECTION('',(0.,-1.,0.));
#1399=DIRECTION('',(0.,0.,-1.));
#1400=DIRECTION('',(1.,0.,0.));
#1401=DIRECTION('',(1.,0.,0.));
#1402=DIRECTION('',(0.,0.,1.));
#1403=DIRECTION('',(1.,0.,0.));
#1404=DIRECTION('',(0.,0.,1.));
#1405=DIRECTION('',(-1.,0.,0.));
#1406=DIRECTION('',(0.,0.,1.));
#1407=DIRECTION('',(-1.,0.,0.));
#1408=DIRECTION('',(0.,0.,1.));
#1409=DIRECTION('',(1.,0.,0.));
#1410=DIRECTION('',(0.,0.,-1.));
#1411=DIRECTION('',(0.,1.,0.));
#1412=DIRECTION('',(0.,1.,0.));
#1413=DIRECTION('',(0.,0.,1.));
#1414=DIRECTION('',(0.,1.,0.));
#1415=DIRECTION('',(0.,0.,1.));
#1416=DIRECTION('',(-1.,0.,0.));
#1417=DIRECTION('',(-1.,0.,0.));
#1418=DIRECTION('',(0.,0.,1.));
#1419=DIRECTION('',(-1.,0.,0.));
#1420=DIRECTION('',(0.,0.,1.));
#1421=DIRECTION('',(0.,-1.,0.));
#1422=DIRECTION('',(0.,-1.,0.));
#1423=DIRECTION('',(0.,0.,1.));
#1424=DIRECTION('',(0.,0.,1.));
#1425=DIRECTION('',(1.,0.,0.));
#1426=DIRECTION('',(0.99999872076488,-0.00159952136727087,0.));
#1427=DIRECTION('',(0.,0.,1.));
#1428=DIRECTION('',(1.,0.,0.));
#1429=DIRECTION('',(0.,1.,0.));
#1430=DIRECTION('',(0.,0.,1.));
#1431=DIRECTION('',(-1.,0.,0.));
#1432=DIRECTION('',(0.,0.,1.));
#1433=DIRECTION('',(-1.,0.,0.));
#1434=DIRECTION('',(0.,0.,1.));
#1435=DIRECTION('',(0.,0.,1.));
#1436=DIRECTION('',(1.,0.,0.));
#1437=DIRECTION('',(0.,0.,1.));
#1438=DIRECTION('',(1.,0.,0.));
#1439=DIRECTION('',(0.,0.,1.));
#1440=DIRECTION('',(1.,0.,0.));
#1441=DIRECTION('',(0.,0.,1.));
#1442=DIRECTION('',(-1.,0.,0.));
#1443=DIRECTION('',(0.,0.,1.));
#1444=DIRECTION('',(0.,-1.,0.));
#1445=DIRECTION('',(0.,-1.,0.));
#1446=DIRECTION('',(0.,0.,1.));
#1447=DIRECTION('',(0.,-1.,0.));
#1448=DIRECTION('',(0.,0.,-1.));
#1449=DIRECTION('',(1.,0.,0.));
#1450=DIRECTION('',(1.,0.,0.));
#1451=DIRECTION('',(0.,0.,1.));
#1452=DIRECTION('',(1.,0.,0.));
#1453=DIRECTION('',(0.,0.,-1.));
#1454=DIRECTION('',(0.,1.,0.));
#1455=DIRECTION('',(0.,1.,0.));
#1456=DIRECTION('',(0.,0.,1.));
#1457=DIRECTION('',(0.,0.,1.));
#1458=DIRECTION('',(1.,0.,0.));
#1459=DIRECTION('',(0.,0.,1.));
#1460=DIRECTION('',(-1.,0.,0.));
#1461=DIRECTION('',(0.,0.,1.));
#1462=DIRECTION('',(-1.,0.,0.));
#1463=DIRECTION('',(0.,0.,1.));
#1464=DIRECTION('',(1.,0.,0.));
#1465=DIRECTION('',(0.,0.,1.));
#1466=DIRECTION('',(1.,0.,0.));
#1467=DIRECTION('',(0.,0.,1.));
#1468=DIRECTION('',(1.,0.,0.));
#1469=DIRECTION('',(0.,0.,1.));
#1470=DIRECTION('',(0.,0.,1.));
#1471=DIRECTION('',(1.,0.,0.));
#1472=DIRECTION('',(0.,0.,1.));
#1473=DIRECTION('',(0.,-1.,0.));
#1474=DIRECTION('',(0.,0.,-1.));
#1475=DIRECTION('',(1.,0.,0.));
#1476=DIRECTION('',(1.,0.,0.));
#1477=DIRECTION('',(0.,0.,1.));
#1478=DIRECTION('',(0.,0.,1.));
#1479=DIRECTION('',(1.,0.,0.));
#1480=DIRECTION('',(0.,0.,1.));
#1481=DIRECTION('',(-1.,0.,0.));
#1482=DIRECTION('',(0.,0.,1.));
#1483=DIRECTION('',(-1.,0.,0.));
#1484=DIRECTION('',(0.,0.,1.));
#1485=DIRECTION('',(1.,0.,0.));
#1486=DIRECTION('',(0.,0.,-1.));
#1487=DIRECTION('',(0.,1.,0.));
#1488=DIRECTION('',(0.,1.,0.));
#1489=DIRECTION('',(0.,0.,1.));
#1490=DIRECTION('',(0.,1.,0.));
#1491=DIRECTION('',(0.,0.,1.));
#1492=DIRECTION('',(-1.,0.,0.));
#1493=DIRECTION('',(-1.,0.,0.));
#1494=DIRECTION('',(0.,0.,1.));
#1495=DIRECTION('',(-1.,0.,0.));
#1496=DIRECTION('',(0.,0.,1.));
#1497=DIRECTION('',(0.,-1.,0.));
#1498=DIRECTION('',(0.,-1.,0.));
#1499=DIRECTION('',(0.,0.,1.));
#1500=DIRECTION('',(1.,0.,0.));
#1501=DIRECTION('',(0.,1.,0.));
#1502=DIRECTION('',(0.,0.,1.));
#1503=DIRECTION('',(1.,0.,0.));
#1504=DIRECTION('',(0.,0.,-1.));
#1505=DIRECTION('',(1.,0.,0.));
#1506=DIRECTION('',(0.,0.,-1.));
#1507=DIRECTION('',(-1.,0.,0.));
#1508=DIRECTION('',(0.,0.,1.));
#1509=DIRECTION('',(0.,1.,0.));
#1510=DIRECTION('',(0.,0.,-1.));
#1511=DIRECTION('',(0.,1.,0.));
#1512=DIRECTION('',(0.,-1.,0.));
#1513=DIRECTION('',(0.,0.,-1.));
#1514=DIRECTION('',(-1.,0.,0.));
#1515=DIRECTION('',(0.,0.,-1.));
#1516=DIRECTION('',(-1.,0.,0.));
#1517=DIRECTION('',(1.,0.,0.));
#1518=DIRECTION('',(0.,0.,-1.));
#1519=DIRECTION('',(0.,-1.,0.));
#1520=DIRECTION('',(0.,-1.,0.));
#1521=DIRECTION('',(0.,0.,1.));
#1522=DIRECTION('',(1.,0.,0.));
#1523=DIRECTION('',(0.,0.,1.));
#1524=DIRECTION('',(1.,0.,0.));
#1525=DIRECTION('',(0.,0.,1.));
#1526=DIRECTION('',(1.,0.,0.));
#1527=DIRECTION('',(0.99999872076488,-0.00159952136727087,0.));
#1528=DIRECTION('',(0.,-1.,0.));
#1529=DIRECTION('',(0.,0.,1.));
#1530=DIRECTION('',(1.,0.,0.));
#1531=DIRECTION('',(1.,0.,0.));
#1532=DIRECTION('',(0.,0.,1.));
#1533=DIRECTION('',(-1.,0.,0.));
#1534=DIRECTION('',(0.,1.,0.));
#1535=DIRECTION('',(-1.,0.,0.));
#1536=DIRECTION('',(0.,0.,1.));
#1537=DIRECTION('',(-1.,0.,0.));
#1538=DIRECTION('',(-1.,0.,0.));
#1539=DIRECTION('',(0.,0.,1.));
#1540=DIRECTION('',(1.,0.,0.));
#1541=DIRECTION('',(0.,-1.,0.));
#1542=DIRECTION('',(1.,0.,0.));
#1543=DIRECTION('',(0.,1.,0.));
#1544=DIRECTION('',(0.,1.,0.));
#1545=DIRECTION('',(0.,0.,1.));
#1546=DIRECTION('',(0.,0.,1.));
#1547=DIRECTION('',(-1.,0.,0.));
#1548=DIRECTION('',(0.,0.,1.));
#1549=DIRECTION('',(0.,0.,1.));
#1550=DIRECTION('',(1.,0.,0.));
#1551=DIRECTION('',(0.,0.,1.));
#1552=DIRECTION('',(1.,0.,0.));
#1553=DIRECTION('',(0.,0.,1.));
#1554=DIRECTION('',(-1.,0.,0.));
#1555=DIRECTION('',(0.,0.,1.));
#1556=DIRECTION('',(0.,-1.,0.));
#1557=DIRECTION('',(0.,0.,1.));
#1558=DIRECTION('',(0.,-1.,0.));
#1559=DIRECTION('',(0.,0.,-1.));
#1560=DIRECTION('',(1.,0.,0.));
#1561=DIRECTION('',(0.,0.,1.));
#1562=DIRECTION('',(1.,0.,0.));
#1563=DIRECTION('',(0.,0.,-1.));
#1564=DIRECTION('',(0.,1.,0.));
#1565=DIRECTION('',(0.,0.,1.));
#1566=DIRECTION('',(0.,0.,1.));
#1567=DIRECTION('',(1.,0.,0.));
#1568=DIRECTION('',(0.,0.,1.));
#1569=DIRECTION('',(-1.,0.,0.));
#1570=DIRECTION('',(0.,0.,1.));
#1571=DIRECTION('',(1.,0.,0.));
#1572=DIRECTION('',(0.,0.,1.));
#1573=DIRECTION('',(1.,0.,0.));
#1574=DIRECTION('',(0.,0.,1.));
#1575=DIRECTION('',(0.,0.,1.));
#1576=DIRECTION('',(1.,0.,0.));
#1577=DIRECTION('',(0.,0.,1.));
#1578=DIRECTION('',(0.,-1.,0.));
#1579=DIRECTION('',(0.,0.,-1.));
#1580=DIRECTION('',(1.,0.,0.));
#1581=DIRECTION('',(0.,0.,1.));
#1582=DIRECTION('',(0.,0.,1.));
#1583=DIRECTION('',(1.,0.,0.));
#1584=DIRECTION('',(0.,0.,1.));
#1585=DIRECTION('',(-1.,0.,0.));
#1586=DIRECTION('',(0.,0.,1.));
#1587=DIRECTION('',(1.,0.,0.));
#1588=DIRECTION('',(0.,0.,-1.));
#1589=DIRECTION('',(0.,1.,0.));
#1590=DIRECTION('',(0.,0.,1.));
#1591=DIRECTION('',(0.,1.,0.));
#1592=DIRECTION('',(0.,0.,1.));
#1593=DIRECTION('',(-1.,0.,0.));
#1594=DIRECTION('',(0.,0.,1.));
#1595=DIRECTION('',(-1.,0.,0.));
#1596=DIRECTION('',(0.,0.,1.));
#1597=DIRECTION('',(0.,-1.,0.));
#1598=DIRECTION('',(0.,0.,1.));
#1599=DIRECTION('',(1.,0.,0.));
#1600=DIRECTION('',(-0.00159952136727087,-0.99999872076488,0.));
#1601=DIRECTION('',(0.99999872076488,-0.00159952136727087,0.));
#1602=DIRECTION('',(0.,0.,1.));
#1603=DIRECTION('',(0.,0.,1.));
#1604=DIRECTION('',(1.,0.,0.));
#1605=CARTESIAN_POINT('',(0.,0.,0.));
#1606=CARTESIAN_POINT('',(2.53,2.05775222439581,-0.02));
#1607=CARTESIAN_POINT('',(2.53,2.05775222439581,0.));
#1608=CARTESIAN_POINT('',(2.52889633166844,1.36775398973914,0.));
#1609=CARTESIAN_POINT('',(2.53,1.36775222439581,-1.6940658945086E-18));
#1610=CARTESIAN_POINT('',(2.52889633166844,1.36775398973914,-0.02));
#1611=CARTESIAN_POINT('',(2.52889633166844,1.36775398973914,-0.02));
#1612=CARTESIAN_POINT('',(2.53,2.05775222439581,-0.02));
#1613=CARTESIAN_POINT('',(2.53,1.36775222439581,-0.02));
#1614=CARTESIAN_POINT('',(2.53,1.36775222439581,-0.02));
#1615=CARTESIAN_POINT('',(2.53,-1.36775222439581,-0.02));
#1616=CARTESIAN_POINT('',(2.53,-1.36775222439581,0.));
#1617=CARTESIAN_POINT('',(2.55,-1.36775222439581,0.));
#1618=CARTESIAN_POINT('',(2.53,-1.36775222439581,0.));
#1619=CARTESIAN_POINT('',(2.55,-1.36775222439581,-0.02));
#1620=CARTESIAN_POINT('',(2.55,-1.36775222439581,-0.02));
#1621=CARTESIAN_POINT('',(2.53,-1.36775222439581,-0.02));
#1622=CARTESIAN_POINT('',(2.53,-1.36775222439581,-0.02));
#1623=CARTESIAN_POINT('',(2.53,-1.36775222439581,-0.02));
#1624=CARTESIAN_POINT('',(2.53,-2.05775222439581,-0.02));
#1625=CARTESIAN_POINT('',(2.53,-2.05775222439581,0.));
#1626=CARTESIAN_POINT('',(1.84,-2.05775222439581,0.));
#1627=CARTESIAN_POINT('',(2.53,-2.05775222439581,-0.02));
#1628=CARTESIAN_POINT('',(1.84,-2.05775222439581,-0.02));
#1629=CARTESIAN_POINT('',(1.84,-2.05775222439581,-0.02));
#1630=CARTESIAN_POINT('',(1.84,-2.46775222439581,-0.02));
#1631=CARTESIAN_POINT('',(1.84,-2.46775222439581,0.));
#1632=CARTESIAN_POINT('',(1.84,-2.46775222439581,0.));
#1633=CARTESIAN_POINT('',(1.84,-2.46775222439581,-0.02));
#1634=CARTESIAN_POINT('',(1.84,-2.46775222439581,-0.02));
#1635=CARTESIAN_POINT('',(1.84,-2.46775222439581,-0.02));
#1636=CARTESIAN_POINT('',(3.24,-2.46775222439581,-0.02));
#1637=CARTESIAN_POINT('',(3.24,-2.46775222439581,0.));
#1638=CARTESIAN_POINT('',(3.24,-2.46775222439581,0.));
#1639=CARTESIAN_POINT('',(3.24,-2.46775222439581,-0.02));
#1640=CARTESIAN_POINT('',(3.24,-2.46775222439581,-0.02));
#1641=CARTESIAN_POINT('',(3.24,-2.46775222439581,-0.02));
#1642=CARTESIAN_POINT('',(3.24,-2.05775222439581,-0.02));
#1643=CARTESIAN_POINT('',(3.24,-2.05775222439581,0.));
#1644=CARTESIAN_POINT('',(3.24,-2.05775222439581,0.));
#1645=CARTESIAN_POINT('',(3.24,-2.05775222439581,-0.02));
#1646=CARTESIAN_POINT('',(3.24,-2.05775222439581,-0.02));
#1647=CARTESIAN_POINT('',(3.24,-2.05775222439581,-0.02));
#1648=CARTESIAN_POINT('',(2.55,-2.05775222439581,-0.02));
#1649=CARTESIAN_POINT('',(2.55,-2.05775222439581,0.));
#1650=CARTESIAN_POINT('',(2.55,-2.05775222439581,-0.02));
#1651=CARTESIAN_POINT('',(2.53,-2.05775222439581,-0.02));
#1652=CARTESIAN_POINT('',(2.53,1.36775222439581,-0.02));
#1653=CARTESIAN_POINT('',(0.,1.36775222439581,0.));
#1654=CARTESIAN_POINT('',(2.54999997441531,1.36773622920259,0.));
#1655=CARTESIAN_POINT('',(2.53,1.36775222439581,-0.02));
#1656=CARTESIAN_POINT('',(2.55,1.36775222439581,-0.02));
#1657=CARTESIAN_POINT('',(2.55,1.36775222439581,-0.02));
#1658=CARTESIAN_POINT('',(2.55,1.3677522243958,-0.0133333333333333));
#1659=CARTESIAN_POINT('',(2.55,1.3677522243958,-0.00666666666666667));
#1660=CARTESIAN_POINT('',(2.55,1.36775222439581,-6.7762635780344E-18));
#1661=CARTESIAN_POINT('',(2.55,2.05775222439581,-0.02));
#1662=CARTESIAN_POINT('',(2.55,2.05775222439581,0.));
#1663=CARTESIAN_POINT('',(3.24,2.05775222439581,0.));
#1664=CARTESIAN_POINT('',(2.55,2.05775222439581,-0.02));
#1665=CARTESIAN_POINT('',(3.24,2.05775222439581,-0.02));
#1666=CARTESIAN_POINT('',(3.24,2.05775222439581,-0.02));
#1667=CARTESIAN_POINT('',(3.24,2.05775222439581,-0.02));
#1668=CARTESIAN_POINT('',(3.24,2.05775222439581,0.));
#1669=CARTESIAN_POINT('',(3.24,2.46775222439581,0.));
#1670=CARTESIAN_POINT('',(3.24,2.05775222439581,-0.02));
#1671=CARTESIAN_POINT('',(3.24,2.46775222439581,-0.02));
#1672=CARTESIAN_POINT('',(3.24,2.46775222439581,-0.02));
#1673=CARTESIAN_POINT('',(3.24,2.46775222439581,-0.02));
#1674=CARTESIAN_POINT('',(3.24,2.46775222439581,0.));
#1675=CARTESIAN_POINT('',(1.84,2.46775222439581,0.));
#1676=CARTESIAN_POINT('',(3.24,2.46775222439581,-0.02));
#1677=CARTESIAN_POINT('',(1.84,2.46775222439581,-0.02));
#1678=CARTESIAN_POINT('',(1.84,2.46775222439581,-0.02));
#1679=CARTESIAN_POINT('',(1.84,2.46775222439581,-0.02));
#1680=CARTESIAN_POINT('',(1.84,2.46775222439581,0.));
#1681=CARTESIAN_POINT('',(1.84,1.46075004583544,0.));
#1682=CARTESIAN_POINT('',(1.84,2.46775222439581,-0.02));
#1683=CARTESIAN_POINT('',(1.84,1.46075004583544,-0.02));
#1684=CARTESIAN_POINT('',(1.84,1.46075004583544,-0.02));
#1685=CARTESIAN_POINT('',(2.53,2.05775222439581,-0.02));
#1686=CARTESIAN_POINT('',(1.93189403273014,1.36870890889417,-0.02));
#1687=CARTESIAN_POINT('',(1.93189403273014,1.36870890889417,-0.02));
#1688=CARTESIAN_POINT('',(1.93204125468368,1.46075004583544,-0.02));
#1689=CARTESIAN_POINT('',(-0.00999999999999959,-1.36775222439581,-0.02));
#1690=CARTESIAN_POINT('',(-0.00999999999999959,-1.36775222439581,0.));
#1691=CARTESIAN_POINT('',(0.0100000000000005,-1.36775222439581,0.));
#1692=CARTESIAN_POINT('',(-0.00999999999999959,-1.36775222439581,0.));
#1693=CARTESIAN_POINT('',(0.0100000000000005,-1.36775222439581,-0.02));
#1694=CARTESIAN_POINT('',(0.0100000000000005,-1.36775222439581,-0.02));
#1695=CARTESIAN_POINT('',(-0.00999999999999959,-1.36775222439581,-0.02));
#1696=CARTESIAN_POINT('',(-0.00999999999999959,-1.36775222439581,-0.02));
#1697=CARTESIAN_POINT('',(-0.00999999999999959,-1.36775222439581,-0.02));
#1698=CARTESIAN_POINT('',(-0.00999999999999959,-2.05775222439581,-0.02));
#1699=CARTESIAN_POINT('',(-0.00999999999999959,-2.05775222439581,0.));
#1700=CARTESIAN_POINT('',(-0.7,-2.05775222439581,0.));
#1701=CARTESIAN_POINT('',(-0.00999999999999959,-2.05775222439581,-0.02));
#1702=CARTESIAN_POINT('',(-0.7,-2.05775222439581,-0.02));
#1703=CARTESIAN_POINT('',(-0.7,-2.05775222439581,-0.02));
#1704=CARTESIAN_POINT('',(-0.7,-2.46775222439581,-0.02));
#1705=CARTESIAN_POINT('',(-0.7,-2.46775222439581,0.));
#1706=CARTESIAN_POINT('',(-0.7,-2.46775222439581,0.));
#1707=CARTESIAN_POINT('',(-0.7,-2.46775222439581,-0.02));
#1708=CARTESIAN_POINT('',(-0.7,-2.46775222439581,-0.02));
#1709=CARTESIAN_POINT('',(-0.7,-2.46775222439581,-0.02));
#1710=CARTESIAN_POINT('',(0.700000000000001,-2.46775222439581,-0.02));
#1711=CARTESIAN_POINT('',(0.700000000000001,-2.46775222439581,0.));
#1712=CARTESIAN_POINT('',(0.700000000000001,-2.46775222439581,0.));
#1713=CARTESIAN_POINT('',(0.700000000000001,-2.46775222439581,-0.02));
#1714=CARTESIAN_POINT('',(0.700000000000001,-2.46775222439581,-0.02));
#1715=CARTESIAN_POINT('',(0.700000000000001,-2.46775222439581,-0.02));
#1716=CARTESIAN_POINT('',(0.700000000000001,-2.05775222439581,-0.02));
#1717=CARTESIAN_POINT('',(0.700000000000001,-2.05775222439581,0.));
#1718=CARTESIAN_POINT('',(0.700000000000001,-2.05775222439581,0.));
#1719=CARTESIAN_POINT('',(0.700000000000001,-2.05775222439581,-0.02));
#1720=CARTESIAN_POINT('',(0.700000000000001,-2.05775222439581,-0.02));
#1721=CARTESIAN_POINT('',(0.700000000000001,-2.05775222439581,-0.02));
#1722=CARTESIAN_POINT('',(0.0100000000000005,-2.05775222439581,-0.02));
#1723=CARTESIAN_POINT('',(0.0100000000000005,-2.05775222439581,0.));
#1724=CARTESIAN_POINT('',(0.0100000000000005,-2.05775222439581,-0.02));
#1725=CARTESIAN_POINT('',(-0.00999999999999959,-2.05775222439581,-0.02));
#1726=CARTESIAN_POINT('',(-0.00999999999999959,2.05775222439581,-0.02));
#1727=CARTESIAN_POINT('',(-0.00999999999999959,2.05775222439581,0.));
#1728=CARTESIAN_POINT('',(-0.7,2.05775222439581,0.));
#1729=CARTESIAN_POINT('',(-0.00999999999999959,1.36775222439581,0.));
#1730=CARTESIAN_POINT('',(-0.7,2.05775222439581,-0.02));
#1731=CARTESIAN_POINT('',(-0.7,2.05775222439581,-0.02));
#1732=CARTESIAN_POINT('',(-0.00999999999999959,2.05775222439581,-0.02));
#1733=CARTESIAN_POINT('',(-0.00999999999999959,1.36775222439581,-0.02));
#1734=CARTESIAN_POINT('',(-0.00999999999999959,1.36775222439581,-0.02));
#1735=CARTESIAN_POINT('',(-0.00999999999999959,1.36775222439581,-0.02));
#1736=CARTESIAN_POINT('',(-0.00999999999999959,1.36775222439581,0.));
#1737=CARTESIAN_POINT('',(0.0100000000000005,1.36775222439581,0.));
#1738=CARTESIAN_POINT('',(-0.00999999999999959,1.36775222439581,-0.02));
#1739=CARTESIAN_POINT('',(0.0100000000000005,1.36775222439581,-0.02));
#1740=CARTESIAN_POINT('',(0.0100000000000005,1.36775222439581,-0.02));
#1741=CARTESIAN_POINT('',(0.0100000000000005,2.05775222439581,-0.02));
#1742=CARTESIAN_POINT('',(0.0100000000000005,2.05775222439581,0.));
#1743=CARTESIAN_POINT('',(0.700000000000001,2.05775222439581,0.));
#1744=CARTESIAN_POINT('',(0.0100000000000005,2.05775222439581,-0.02));
#1745=CARTESIAN_POINT('',(0.700000000000001,2.05775222439581,-0.02));
#1746=CARTESIAN_POINT('',(0.700000000000001,2.05775222439581,-0.02));
#1747=CARTESIAN_POINT('',(0.700000000000001,2.05775222439581,-0.02));
#1748=CARTESIAN_POINT('',(0.700000000000001,2.05775222439581,0.));
#1749=CARTESIAN_POINT('',(0.700000000000001,2.46775222439581,0.));
#1750=CARTESIAN_POINT('',(0.700000000000001,2.05775222439581,-0.02));
#1751=CARTESIAN_POINT('',(0.700000000000001,2.46775222439581,-0.02));
#1752=CARTESIAN_POINT('',(0.700000000000001,2.46775222439581,-0.02));
#1753=CARTESIAN_POINT('',(0.700000000000001,2.46775222439581,-0.02));
#1754=CARTESIAN_POINT('',(0.700000000000001,2.46775222439581,0.));
#1755=CARTESIAN_POINT('',(-0.7,2.46775222439581,0.));
#1756=CARTESIAN_POINT('',(0.700000000000001,2.46775222439581,-0.02));
#1757=CARTESIAN_POINT('',(-0.7,2.46775222439581,-0.02));
#1758=CARTESIAN_POINT('',(-0.7,2.46775222439581,-0.02));
#1759=CARTESIAN_POINT('',(-0.7,2.46775222439581,-0.02));
#1760=CARTESIAN_POINT('',(-0.7,2.46775222439581,0.));
#1761=CARTESIAN_POINT('',(-0.7,2.46775222439581,-0.02));
#1762=CARTESIAN_POINT('',(-0.00999999999999959,2.05775222439581,-0.02));
#1763=CARTESIAN_POINT('',(-3.5,-2.5,0.9));
#1764=CARTESIAN_POINT('',(-3.5,-2.5,0.));
#1765=CARTESIAN_POINT('',(-3.5,-2.5,0.));
#1766=CARTESIAN_POINT('',(3.5,-2.5,0.));
#1767=CARTESIAN_POINT('',(3.5,-2.5,0.9));
#1768=CARTESIAN_POINT('',(3.5,-2.5,0.9));
#1769=CARTESIAN_POINT('',(-3.5,-2.5,0.9));
#1770=CARTESIAN_POINT('',(-3.5,-2.5,0.9));
#1771=CARTESIAN_POINT('',(-3.5,-2.5,0.9));
#1772=CARTESIAN_POINT('',(3.5,-2.5,0.9));
#1773=CARTESIAN_POINT('',(3.5,-2.5,0.));
#1774=CARTESIAN_POINT('',(3.5,2.5,0.));
#1775=CARTESIAN_POINT('',(3.5,2.5,0.9));
#1776=CARTESIAN_POINT('',(3.5,2.5,0.9));
#1777=CARTESIAN_POINT('',(3.5,-2.5,0.9));
#1778=CARTESIAN_POINT('',(3.5,2.5,0.9));
#1779=CARTESIAN_POINT('',(3.5,2.5,0.));
#1780=CARTESIAN_POINT('',(-3.5,2.5,0.));
#1781=CARTESIAN_POINT('',(-3.5,2.5,0.9));
#1782=CARTESIAN_POINT('',(-3.5,2.5,0.9));
#1783=CARTESIAN_POINT('',(3.5,2.5,0.9));
#1784=CARTESIAN_POINT('',(-3.5,2.5,0.9));
#1785=CARTESIAN_POINT('',(-3.5,2.5,0.));
#1786=CARTESIAN_POINT('',(-3.5,2.5,0.9));
#1787=CARTESIAN_POINT('',(0.,0.,0.9));
#1788=CARTESIAN_POINT('',(0.,0.,0.));
#1789=CARTESIAN_POINT('',(1.93204125468368,1.46075004583544,0.));
#1790=CARTESIAN_POINT('',(1.93189403273014,1.36870890889417,0.));
#1791=CARTESIAN_POINT('',(1.93189403273014,1.36870890889417,0.));
#1792=CARTESIAN_POINT('',(-3.24,2.46775222439581,0.));
#1793=CARTESIAN_POINT('',(-3.24,2.46775222439581,0.));
#1794=CARTESIAN_POINT('',(-3.24,2.05775222439581,0.));
#1795=CARTESIAN_POINT('',(-2.55,2.05775222439581,0.));
#1796=CARTESIAN_POINT('',(-2.55,1.36775222439581,0.));
#1797=CARTESIAN_POINT('',(-2.55,1.36775222439581,0.));
#1798=CARTESIAN_POINT('',(-2.53,1.36775222439581,0.));
#1799=CARTESIAN_POINT('',(-2.53,2.05775222439581,0.));
#1800=CARTESIAN_POINT('',(-1.84,2.05775222439581,0.));
#1801=CARTESIAN_POINT('',(-1.84,2.05775222439581,0.));
#1802=CARTESIAN_POINT('',(-1.84,2.46775222439581,0.));
#1803=CARTESIAN_POINT('',(-1.84,2.46775222439581,0.));
#1804=CARTESIAN_POINT('',(-2.53,-2.05775222439581,0.));
#1805=CARTESIAN_POINT('',(-1.84,-2.05775222439581,0.));
#1806=CARTESIAN_POINT('',(-2.53,-1.36775222439581,0.));
#1807=CARTESIAN_POINT('',(-2.55,-1.36775222439581,0.));
#1808=CARTESIAN_POINT('',(-2.55,-1.36775222439581,0.));
#1809=CARTESIAN_POINT('',(-2.55,-2.05775222439581,0.));
#1810=CARTESIAN_POINT('',(-3.24,-2.05775222439581,0.));
#1811=CARTESIAN_POINT('',(-3.24,-2.46775222439581,0.));
#1812=CARTESIAN_POINT('',(-3.24,-2.46775222439581,0.));
#1813=CARTESIAN_POINT('',(-1.84,-2.46775222439581,0.));
#1814=CARTESIAN_POINT('',(-1.84,-2.46775222439581,0.));
#1815=CARTESIAN_POINT('',(-1.84,-2.05775222439581,0.));
#1816=CARTESIAN_POINT('',(-2.55,-1.36775222439581,-0.02));
#1817=CARTESIAN_POINT('',(-2.53,-1.36775222439581,-0.02));
#1818=CARTESIAN_POINT('',(-2.53,-1.36775222439581,-0.02));
#1819=CARTESIAN_POINT('',(-2.55,-1.36775222439581,-0.02));
#1820=CARTESIAN_POINT('',(-2.55,-1.36775222439581,-0.02));
#1821=CARTESIAN_POINT('',(-2.55,-1.36775222439581,-0.02));
#1822=CARTESIAN_POINT('',(-2.55,-2.05775222439581,-0.02));
#1823=CARTESIAN_POINT('',(-2.55,-2.05775222439581,-0.02));
#1824=CARTESIAN_POINT('',(-3.24,-2.05775222439581,-0.02));
#1825=CARTESIAN_POINT('',(-3.24,-2.05775222439581,-0.02));
#1826=CARTESIAN_POINT('',(-3.24,-2.46775222439581,-0.02));
#1827=CARTESIAN_POINT('',(-3.24,-2.46775222439581,-0.02));
#1828=CARTESIAN_POINT('',(-3.24,-2.46775222439581,-0.02));
#1829=CARTESIAN_POINT('',(-3.24,-2.46775222439581,-0.02));
#1830=CARTESIAN_POINT('',(-1.84,-2.46775222439581,-0.02));
#1831=CARTESIAN_POINT('',(-1.84,-2.46775222439581,-0.02));
#1832=CARTESIAN_POINT('',(-1.84,-2.46775222439581,-0.02));
#1833=CARTESIAN_POINT('',(-1.84,-2.46775222439581,-0.02));
#1834=CARTESIAN_POINT('',(-1.84,-2.05775222439581,-0.02));
#1835=CARTESIAN_POINT('',(-1.84,-2.05775222439581,-0.02));
#1836=CARTESIAN_POINT('',(-1.84,-2.05775222439581,-0.02));
#1837=CARTESIAN_POINT('',(-1.84,-2.05775222439581,-0.02));
#1838=CARTESIAN_POINT('',(-2.53,-2.05775222439581,-0.02));
#1839=CARTESIAN_POINT('',(-2.53,-2.05775222439581,-0.02));
#1840=CARTESIAN_POINT('',(-2.55,-2.05775222439581,-0.02));
#1841=CARTESIAN_POINT('',(-2.55,2.05775222439581,-0.02));
#1842=CARTESIAN_POINT('',(-3.24,2.05775222439581,-0.02));
#1843=CARTESIAN_POINT('',(-3.24,2.05775222439581,-0.02));
#1844=CARTESIAN_POINT('',(-2.55,2.05775222439581,-0.02));
#1845=CARTESIAN_POINT('',(-2.55,1.36775222439581,-0.02));
#1846=CARTESIAN_POINT('',(-2.55,1.36775222439581,-0.02));
#1847=CARTESIAN_POINT('',(-2.55,1.36775222439581,-0.02));
#1848=CARTESIAN_POINT('',(-2.55,1.36775222439581,-0.02));
#1849=CARTESIAN_POINT('',(-2.53,1.36775222439581,-0.02));
#1850=CARTESIAN_POINT('',(-2.53,1.36775222439581,-0.02));
#1851=CARTESIAN_POINT('',(-2.53,2.05775222439581,-0.02));
#1852=CARTESIAN_POINT('',(-2.53,2.05775222439581,-0.02));
#1853=CARTESIAN_POINT('',(-1.84,2.05775222439581,-0.02));
#1854=CARTESIAN_POINT('',(-1.84,2.05775222439581,-0.02));
#1855=CARTESIAN_POINT('',(-1.84,2.05775222439581,-0.02));
#1856=CARTESIAN_POINT('',(-1.84,2.05775222439581,-0.02));
#1857=CARTESIAN_POINT('',(-1.84,2.46775222439581,-0.02));
#1858=CARTESIAN_POINT('',(-1.84,2.46775222439581,-0.02));
#1859=CARTESIAN_POINT('',(-1.84,2.46775222439581,-0.02));
#1860=CARTESIAN_POINT('',(-1.84,2.46775222439581,-0.02));
#1861=CARTESIAN_POINT('',(-3.24,2.46775222439581,-0.02));
#1862=CARTESIAN_POINT('',(-3.24,2.46775222439581,-0.02));
#1863=CARTESIAN_POINT('',(-3.24,2.46775222439581,-0.02));
#1864=CARTESIAN_POINT('',(-3.24,2.46775222439581,-0.02));
#1865=CARTESIAN_POINT('',(-2.55,2.05775222439581,-0.02));
#1866=CARTESIAN_POINT('',(1.93189403273014,1.36870890889417,-0.02));
#1867=CARTESIAN_POINT('',(1.93189403273014,1.36870890889417,-0.02));
#1868=CARTESIAN_POINT('',(1.93204125468368,1.46075004583544,-0.02));
#1869=MECHANICAL_DESIGN_GEOMETRIC_PRESENTATION_REPRESENTATION('',(#869,
#870,#871,#872,#873,#874,#875,#876,#877,#878,#879,#880,#881,#882,#883,#884,
#885,#886,#887,#888,#889,#890,#891,#892,#893,#894,#895,#896,#897,#898,#899,
#900,#901,#902,#903,#904,#905,#906,#907,#908,#909,#910,#911,#912,#913,#914,
#915,#916,#917,#918),#1870);
#1870=(
GEOMETRIC_REPRESENTATION_CONTEXT(3)
GLOBAL_UNCERTAINTY_ASSIGNED_CONTEXT((#1871))
GLOBAL_UNIT_ASSIGNED_CONTEXT((#1874,#1873,#1872))
REPRESENTATION_CONTEXT('SIT9120AI-2DF-25E125.000000',
'TOP_LEVEL_ASSEMBLY_PART')
);
#1871=UNCERTAINTY_MEASURE_WITH_UNIT(LENGTH_MEASURE(0.005),#1874,
'DISTANCE_ACCURACY_VALUE','Maximum Tolerance applied to model');
#1872=(
NAMED_UNIT(*)
SI_UNIT($,.STERADIAN.)
SOLID_ANGLE_UNIT()
);
#1873=(
NAMED_UNIT(*)
PLANE_ANGLE_UNIT()
SI_UNIT($,.RADIAN.)
);
#1874=(
LENGTH_UNIT()
NAMED_UNIT(*)
SI_UNIT(.MILLI.,.METRE.)
);
#1875=PRODUCT_DEFINITION_SHAPE('','',#1876);
#1876=PRODUCT_DEFINITION('','',#1878,#1877);
#1877=PRODUCT_DEFINITION_CONTEXT('',#1884,'design');
#1878=PRODUCT_DEFINITION_FORMATION_WITH_SPECIFIED_SOURCE('','',#1880,
 .NOT_KNOWN.);
#1879=PRODUCT_RELATED_PRODUCT_CATEGORY('','',(#1880));
#1880=PRODUCT('SIT9120AI-2DF-25E125.000000',
'SIT9120AI-2DF-25E125.000000','SIT9120AI-2DF-25E125.000000',(#1882));
#1881=PRODUCT_CATEGORY('','');
#1882=PRODUCT_CONTEXT('',#1884,'mechanical');
#1883=APPLICATION_PROTOCOL_DEFINITION('international standard',
'automotive_design',2010,#1884);
#1884=APPLICATION_CONTEXT(
'core data for automotive mechanical design processes');
ENDSEC;
END-ISO-10303-21;
